<svg version="1.1" viewBox="0.0 0.0 864.0 240.0" fill="none" stroke="none" stroke-linecap="square" stroke-miterlimit="10" xmlns:xlink="http://www.w3.org/1999/xlink" xmlns="http://www.w3.org/2000/svg"><clipPath id="p.0"><path d="m0 0l864.0 0l0 240.0l-864.0 0l0 -240.0z" clip-rule="nonzero"/></clipPath><g clip-path="url(#p.0)"><path fill="#000000" fill-opacity="0.0" d="m0 0l864.0 0l0 240.0l-864.0 0z" fill-rule="evenodd"/><path fill="#b8e3f6" d="m55.110237 47.986877l710.9921 0l0 90.01575l-710.9921 0z" fill-rule="evenodd"/><path stroke="#000000" stroke-width="2.0" stroke-linejoin="round" stroke-linecap="butt" d="m55.110237 47.986877l710.9921 0l0 90.01575l-710.9921 0z" fill-rule="evenodd"/><path fill="#000000" fill-opacity="0.0" d="m525.1102 47.986877l0 89.00787" fill-rule="evenodd"/><path stroke="#000000" stroke-width="2.0" stroke-linejoin="round" stroke-linecap="butt" d="m525.1102 47.986877l0 89.00787" fill-rule="evenodd"/><path fill="#000000" fill-opacity="0.0" d="m290.11023 47.986877l0 89.00787" fill-rule="evenodd"/><path stroke="#000000" stroke-width="2.0" stroke-linejoin="round" stroke-linecap="butt" d="m290.11023 47.986877l0 89.00787" fill-rule="evenodd"/><path fill="#000000" fill-opacity="0.0" d="m139.59055 47.986877l75.52756 0l0 41.007874l-75.52756 0z" fill-rule="evenodd"/><path fill="#000000" d="m158.76242 70.51375q-0.4375 -0.328125 -0.984375 -0.484375q-0.53125 -0.171875 -1.171875 -0.171875q-1.015625 0 -1.734375 0.28125q-0.71875 0.28125 -0.71875 0.5625q0 0.1875 0.234375 0.34375q0.328125 0.234375 1.53125 0.40625q1.84375 0.25 2.703125 0.53125q0.859375 0.28125 1.359375 0.90625q0.515625 0.625 0.515625 1.390625q0 1.53125 -1.640625 2.53125q-1.640625 1.0 -3.8125 1.0q-0.9375 0 -1.703125 -0.171875q-0.75 -0.15625 -1.328125 -0.46875q-0.390625 0.28125 -0.75 0.28125q-0.40625 0 -0.65625 -0.234375q-0.234375 -0.234375 -0.234375 -0.546875q0 -0.21875 0.09375 -0.640625l0.15625 -0.71875q0.15625 -0.78125 0.515625 -1.09375q0.375 -0.328125 0.859375 -0.328125q0.390625 0 0.59375 0.21875q0.203125 0.203125 0.25 0.71875q0.390625 0.421875 1.03125 0.640625q0.65625 0.203125 1.546875 0.203125q1.578125 0 2.484375 -0.5q0.40625 -0.234375 0.40625 -0.53125q0 -0.40625 -0.5 -0.640625q-0.5 -0.234375 -2.109375 -0.40625q-2.296875 -0.25 -3.015625 -0.859375q-0.71875 -0.59375 -0.71875 -1.546875q0 -0.828125 0.53125 -1.5625q0.53125 -0.734375 1.59375 -1.25q1.375 -0.640625 2.953125 -0.640625q0.75 0 1.40625 0.140625q0.65625 0.140625 1.203125 0.421875q0.453125 -0.28125 0.75 -0.28125q0.328125 0 0.5625 0.234375q0.25 0.234375 0.25 0.546875q0 0.21875 -0.09375 0.640625l-0.109375 0.515625q-0.171875 0.78125 -0.546875 1.109375q-0.359375 0.328125 -0.84375 0.328125q-0.375 0 -0.625 -0.234375q-0.234375 -0.25 -0.234375 -0.640625zm12.673965 -6.546871l-0.484375 2.2499962l-2.546875 0l0.484375 -2.2499962l2.546875 0zm-0.5625 4.046871l-1.5625 7.3125l2.5625 0q0.703125 0 0.953125 0.21875q0.265625 0.21875 0.265625 0.625q0 0.65625 -0.625 1.078125q-0.3125 0.21875 -1.046875 0.21875l-7.265625 0q-0.71875 0 -0.96875 -0.21875q-0.25 -0.234375 -0.25 -0.625q0 -0.640625 0.59375 -1.0625q0.34375 -0.234375 1.078125 -0.234375l2.5625 0l1.109375 -5.1875l-1.71875 0q-0.71875 0 -0.96875 -0.21875q-0.25 -0.21875 -0.25 -0.625q0 -0.625 0.59375 -1.046875q0.3125 -0.234375 1.078125 -0.234375l3.859375 0zm9.017715 7.3125l3.75 0q0.15625 -0.59375 0.515625 -0.890625q0.359375 -0.296875 0.8125 -0.296875q0.359375 0 0.59375 0.234375q0.25 0.234375 0.25 0.5625q0 0.203125 -0.09375 0.640625l-0.40625 1.890625l-9.28125 0l0.375 -1.765625l6.796875 -5.5625l-3.265625 0q-0.1875 0.875 -0.390625 1.125q-0.421875 0.5 -1.03125 0.5q-0.375 0 -0.609375 -0.21875q-0.234375 -0.234375 -0.234375 -0.5625q0 -0.203125 0.09375 -0.625l0.5 -2.34375l8.828125 0l-0.375 1.75l-6.828125 5.5625zm19.62709 -1.5l-8.75 0q0.140625 0.8125 0.875 1.328125q0.734375 0.515625 2.1875 0.515625q1.203125 0 3.28125 -0.5q0.859375 -0.21875 1.1875 -0.21875q0.34375 0 0.5625 0.234375q0.234375 0.21875 0.234375 0.578125q0 0.53125 -0.484375 0.953125q-0.46875 0.40625 -2.234375 0.75q-1.75 0.34375 -3.15625 0.34375q-2.234375 0 -3.453125 -1.109375q-1.203125 -1.125 -1.203125 -2.875q0 -1.4375 0.875 -2.890625q0.875 -1.46875 2.5 -2.328125q1.640625 -0.875 3.359375 -0.875q2.015625 0 3.265625 1.109375q1.265625 1.109375 1.265625 3.109375q0 0.4375 -0.109375 0.96875l-0.203125 0.90625zm-1.90625 -2.140625q-0.28125 -0.875 -0.984375 -1.34375q-0.6875 -0.484375 -1.78125 -0.484375q-1.09375 0 -1.984375 0.453125q-0.890625 0.453125 -1.578125 1.375l6.328125 0z" fill-rule="nonzero"/><path fill="#000000" fill-opacity="0.0" d="m319.8622 71.98688l175.49606 0l0 41.007874l-175.49606 0z" fill-rule="evenodd"/><path fill="#000000" d="m333.81534 92.01375l-0.078125 0.625q0.671875 -0.515625 1.140625 -0.703125q0.484375 -0.203125 0.984375 -0.203125q1.015625 0 1.71875 0.90625q0.640625 -0.46875 1.265625 -0.6875q0.625 -0.21875 1.21875 -0.21875q1.09375 0 1.71875 0.609375q0.640625 0.59375 0.640625 1.578125q0 0.296875 -0.078125 0.625l-1.015625 4.78125q0.625 0 0.875 0.234375q0.25 0.21875 0.25 0.609375q0 0.65625 -0.625 1.078125q-0.3125 0.21875 -1.0625 0.21875l-2.015625 0l1.421875 -6.734375q0.046875 -0.234375 0.046875 -0.40625q0 -0.21875 -0.140625 -0.34375q-0.140625 -0.125 -0.4375 -0.125q-0.34375 0 -0.671875 0.1875q-0.453125 0.25 -1.15625 0.984375l-0.921875 4.296875q0.609375 0 0.859375 0.234375q0.25 0.21875 0.25 0.609375q0 0.65625 -0.609375 1.078125q-0.328125 0.21875 -1.0625 0.21875l-2.03125 0l1.4375 -6.734375q0.046875 -0.21875 0.046875 -0.40625q0 -0.203125 -0.15625 -0.328125q-0.140625 -0.140625 -0.421875 -0.140625q-0.390625 0 -0.734375 0.203125q-0.46875 0.265625 -1.140625 0.96875l-0.921875 4.296875q0.625 0 0.875 0.234375q0.25 0.21875 0.25 0.609375q0 0.65625 -0.625 1.078125q-0.3125 0.21875 -1.0625 0.21875l-1.921875 0q-0.703125 0 -0.96875 -0.21875q-0.25 -0.234375 -0.25 -0.625q0 -0.515625 0.421875 -0.90625q0.421875 -0.390625 1.15625 -0.390625l1.09375 -5.1875q-0.625 0 -0.875 -0.21875q-0.25 -0.234375 -0.25 -0.625q0 -0.625 0.59375 -1.046875q0.34375 -0.234375 1.09375 -0.234375l1.875 0zm20.377075 5.8125l-8.75 0q0.140625 0.8125 0.875 1.328125q0.734375 0.515625 2.1875 0.515625q1.203125 0 3.28125 -0.5q0.859375 -0.21875 1.1875 -0.21875q0.34375 0 0.5625 0.234375q0.234375 0.21875 0.234375 0.578125q0 0.53125 -0.484375 0.953125q-0.46875 0.40625 -2.234375 0.75q-1.75 0.34375 -3.15625 0.34375q-2.234375 0 -3.453125 -1.109375q-1.203125 -1.125 -1.203125 -2.875q0 -1.4375 0.875 -2.890625q0.875 -1.46875 2.5 -2.328125q1.640625 -0.875 3.359375 -0.875q2.015625 0 3.265625 1.109375q1.265625 1.109375 1.265625 3.109375q0 0.4375 -0.109375 0.96875l-0.203125 0.90625zm-1.90625 -2.140625q-0.28125 -0.875 -0.984375 -1.34375q-0.6875 -0.484375 -1.78125 -0.484375q-1.09375 0 -1.984375 0.453125q-0.890625 0.453125 -1.578125 1.375l6.328125 0zm12.345856 -1.171875q-0.4375 -0.328125 -0.984375 -0.484375q-0.53125 -0.171875 -1.171875 -0.171875q-1.015625 0 -1.734375 0.28125q-0.71875 0.28125 -0.71875 0.5625q0 0.1875 0.234375 0.34375q0.328125 0.234375 1.53125 0.40625q1.84375 0.25 2.703125 0.53125q0.859375 0.28125 1.359375 0.90625q0.515625 0.625 0.515625 1.390625q0 1.53125 -1.640625 2.53125q-1.640625 1.0 -3.8125 1.0q-0.9375 0 -1.703125 -0.171875q-0.75 -0.15625 -1.328125 -0.46875q-0.390625 0.28125 -0.75 0.28125q-0.40625 0 -0.65625 -0.234375q-0.234375 -0.234375 -0.234375 -0.546875q0 -0.21875 0.09375 -0.640625l0.15625 -0.71875q0.15625 -0.78125 0.515625 -1.09375q0.375 -0.328125 0.859375 -0.328125q0.390625 0 0.59375 0.21875q0.203125 0.203125 0.25 0.71875q0.390625 0.421875 1.03125 0.640625q0.65625 0.203125 1.546875 0.203125q1.578125 0 2.484375 -0.5q0.40625 -0.234375 0.40625 -0.53125q0 -0.40625 -0.5 -0.640625q-0.5 -0.234375 -2.109375 -0.40625q-2.296875 -0.25 -3.015625 -0.859375q-0.71875 -0.59375 -0.71875 -1.546875q0 -0.828125 0.53125 -1.5625q0.53125 -0.734375 1.59375 -1.25q1.375 -0.640625 2.953125 -0.640625q0.75 0 1.40625 0.140625q0.65625 0.140625 1.203125 0.421875q0.453125 -0.28125 0.75 -0.28125q0.328125 0 0.5625 0.234375q0.25 0.234375 0.25 0.546875q0 0.21875 -0.09375 0.640625l-0.109375 0.515625q-0.171875 0.78125 -0.546875 1.109375q-0.359375 0.328125 -0.84375 0.328125q-0.375 0 -0.625 -0.234375q-0.234375 -0.25 -0.234375 -0.640625zm12.79895 0q-0.4375 -0.328125 -0.984375 -0.484375q-0.53125 -0.171875 -1.171875 -0.171875q-1.015625 0 -1.734375 0.28125q-0.71875 0.28125 -0.71875 0.5625q0 0.1875 0.234375 0.34375q0.328125 0.234375 1.53125 0.40625q1.84375 0.25 2.703125 0.53125q0.859375 0.28125 1.359375 0.90625q0.515625 0.625 0.515625 1.390625q0 1.53125 -1.640625 2.53125q-1.640625 1.0 -3.8125 1.0q-0.9375 0 -1.703125 -0.171875q-0.75 -0.15625 -1.328125 -0.46875q-0.390625 0.28125 -0.75 0.28125q-0.40625 0 -0.65625 -0.234375q-0.234375 -0.234375 -0.234375 -0.546875q0 -0.21875 0.09375 -0.640625l0.15625 -0.71875q0.15625 -0.78125 0.515625 -1.09375q0.375 -0.328125 0.859375 -0.328125q0.390625 0 0.59375 0.21875q0.203125 0.203125 0.25 0.71875q0.390625 0.421875 1.03125 0.640625q0.65625 0.203125 1.546875 0.203125q1.578125 0 2.484375 -0.5q0.40625 -0.234375 0.40625 -0.53125q0 -0.40625 -0.5 -0.640625q-0.5 -0.234375 -2.109375 -0.40625q-2.296875 -0.25 -3.015625 -0.859375q-0.71875 -0.59375 -0.71875 -1.546875q0 -0.828125 0.53125 -1.5625q0.53125 -0.734375 1.59375 -1.25q1.375 -0.640625 2.953125 -0.640625q0.75 0 1.40625 0.140625q0.65625 0.140625 1.203125 0.421875q0.453125 -0.28125 0.75 -0.28125q0.328125 0 0.5625 0.234375q0.25 0.234375 0.25 0.546875q0 0.21875 -0.09375 0.640625l-0.109375 0.515625q-0.171875 0.78125 -0.546875 1.109375q-0.359375 0.328125 -0.84375 0.328125q-0.375 0 -0.625 -0.234375q-0.234375 -0.25 -0.234375 -0.640625zm10.939606 6.953125l0.109375 -0.5q-1.78125 0.84375 -3.78125 0.84375q-1.46875 0 -2.34375 -0.75q-0.875 -0.75 -0.875 -1.703125q0 -0.78125 0.59375 -1.65625q0.8125 -1.15625 2.234375 -1.796875q1.421875 -0.65625 3.15625 -0.65625q0.953125 0 2.1875 0.203125l0.109375 -0.5q0.015625 -0.109375 0.015625 -0.21875q0 -0.375 -0.296875 -0.59375q-0.40625 -0.28125 -1.46875 -0.28125q-0.984375 0 -2.53125 0.375q-0.59375 0.140625 -0.921875 0.140625q-0.34375 0 -0.578125 -0.21875q-0.21875 -0.234375 -0.21875 -0.609375q0 -0.53125 0.328125 -0.859375q0.328125 -0.34375 1.828125 -0.640625q1.5 -0.3125 2.5625 -0.3125q1.75 0 2.609375 0.71875q0.875 0.71875 0.875 1.765625q0 0.328125 -0.0625 0.71875l-0.9375 4.390625l0.359375 0q0.71875 0 0.96875 0.21875q0.25 0.21875 0.25 0.625q0 0.65625 -0.609375 1.078125q-0.328125 0.21875 -1.0625 0.21875l-2.5 0zm0.8125 -3.828125q-1.21875 -0.25 -2.3125 -0.25q-1.421875 0 -2.5625 0.765625q-0.65625 0.421875 -0.65625 0.8125q0 0.3125 0.453125 0.515625q0.453125 0.203125 1.15625 0.203125q0.75 0 1.796875 -0.296875q1.046875 -0.296875 1.921875 -0.828125l0.203125 -0.921875zm14.04895 -5.21875l0.375 -0.40625l2.5 0q0.71875 0 0.96875 0.21875q0.265625 0.21875 0.265625 0.625q0 0.625 -0.59375 1.046875q-0.328125 0.234375 -1.078125 0.234375l-0.375 0l-1.65625 7.78125q-0.234375 1.09375 -0.875 1.9375q-0.640625 0.84375 -1.765625 1.453125q-1.125 0.609375 -2.34375 0.609375l-2.40625 0q-0.71875 0 -0.96875 -0.21875q-0.25 -0.21875 -0.25 -0.625q0 -0.640625 0.609375 -1.0625q0.328125 -0.21875 1.046875 -0.21875l2.359375 0q0.984375 0 1.640625 -0.53125q0.65625 -0.53125 0.828125 -1.34375l0.21875 -1.046875q-0.796875 0.453125 -1.59375 0.6875q-0.78125 0.234375 -1.546875 0.234375q-1.875 0 -3.015625 -1.109375q-1.140625 -1.109375 -1.140625 -2.796875q0 -1.515625 0.828125 -2.96875q0.828125 -1.46875 2.34375 -2.34375q1.515625 -0.875 3.140625 -0.875q0.6875 0 1.234375 0.15625q0.546875 0.15625 1.25 0.5625zm-4.234375 7.21875q1.4375 0 2.546875 -1.078125q1.125 -1.078125 1.125 -2.421875q0 -0.96875 -0.6875 -1.640625q-0.671875 -0.671875 -1.6875 -0.671875q-1.4375 0 -2.5625 1.09375q-1.109375 1.09375 -1.109375 2.40625q0 1.0 0.671875 1.65625q0.671875 0.65625 1.703125 0.65625zm19.189606 -1.8125l-8.75 0q0.140625 0.8125 0.875 1.328125q0.734375 0.515625 2.1875 0.515625q1.203125 0 3.28125 -0.5q0.859375 -0.21875 1.1875 -0.21875q0.34375 0 0.5625 0.234375q0.234375 0.21875 0.234375 0.578125q0 0.53125 -0.484375 0.953125q-0.46875 0.40625 -2.234375 0.75q-1.75 0.34375 -3.15625 0.34375q-2.234375 0 -3.453125 -1.109375q-1.203125 -1.125 -1.203125 -2.875q0 -1.4375 0.875 -2.890625q0.875 -1.46875 2.5 -2.328125q1.640625 -0.875 3.359375 -0.875q2.015625 0 3.265625 1.109375q1.265625 1.109375 1.265625 3.109375q0 0.4375 -0.109375 0.96875l-0.203125 0.90625zm-1.90625 -2.140625q-0.28125 -0.875 -0.984375 -1.34375q-0.6875 -0.484375 -1.78125 -0.484375q-1.09375 0 -1.984375 0.453125q-0.890625 0.453125 -1.578125 1.375l6.328125 0zm14.11145 0.703125l-8.90625 0l0.421875 -1.953125l8.90625 0l-0.421875 1.953125zm8.048981 -2.25l-0.921875 4.28125q-0.0625 0.328125 -0.0625 0.53125q0 0.28125 0.25 0.453125q0.421875 0.265625 1.375 0.265625q1.65625 0 3.1875 -0.6875q0.59375 -0.28125 0.890625 -0.28125q0.359375 0 0.578125 0.234375q0.234375 0.234375 0.234375 0.609375q0 0.5 -0.375 0.859375q-0.5625 0.515625 -2.203125 0.96875q-1.625 0.4375 -2.828125 0.4375q-0.984375 0 -1.890625 -0.328125q-0.65625 -0.25 -1.046875 -0.765625q-0.390625 -0.515625 -0.390625 -1.203125q0 -0.34375 0.0625 -0.671875l1.0 -4.703125l-0.78125 0q-0.703125 0 -0.96875 -0.21875q-0.25 -0.21875 -0.25 -0.625q0 -0.625 0.609375 -1.0625q0.328125 -0.21875 1.078125 -0.21875l0.765625 0l0.421875 -1.921875q0.15625 -0.78125 0.515625 -1.109375q0.375 -0.328125 0.859375 -0.328125q0.359375 0 0.59375 0.234375q0.25 0.234375 0.25 0.546875q0 0.21875 -0.09375 0.65625l-0.40625 1.921875l3.9375 0q0.71875 0 0.96875 0.21875q0.265625 0.21875 0.265625 0.625q0 0.625 -0.59375 1.046875q-0.34375 0.234375 -1.09375 0.234375l-3.9375 0zm10.8302 7.25l-2.15625 -7.25q-0.453125 -0.046875 -0.65625 -0.265625q-0.203125 -0.21875 -0.203125 -0.578125q0 -0.625 0.59375 -1.0625q0.328125 -0.21875 1.078125 -0.21875l1.953125 0q0.71875 0 0.96875 0.21875q0.25 0.21875 0.25 0.625q0 0.515625 -0.421875 0.90625q-0.40625 0.375 -1.1875 0.375l1.46875 4.90625l3.546875 -4.90625q-0.625 0 -0.875 -0.21875q-0.25 -0.234375 -0.25 -0.625q0 -0.625 0.578125 -1.046875q0.328125 -0.234375 1.09375 -0.234375l2.0 0q0.703125 0 0.953125 0.21875q0.265625 0.21875 0.265625 0.625q0 0.46875 -0.375 0.859375q-0.359375 0.375 -1.0 0.421875l-6.9375 9.65625q0.828125 0 1.046875 0.1875q0.3125 0.25 0.3125 0.65625q0 0.65625 -0.625 1.0625q-0.328125 0.21875 -1.0625 0.21875l-4.65625 0q-0.71875 0 -0.96875 -0.21875q-0.25 -0.21875 -0.25 -0.625q0 -0.625 0.59375 -1.0625q0.34375 -0.21875 1.078125 -0.21875l2.125 0l1.71875 -2.40625zm11.595856 -1.09375l-0.75 3.5l1.28125 0q0.703125 0 0.953125 0.21875q0.265625 0.21875 0.265625 0.625q0 0.65625 -0.625 1.0625q-0.3125 0.21875 -1.0625 0.21875l-3.78125 0q-0.703125 0 -0.953125 -0.21875q-0.265625 -0.21875 -0.265625 -0.625q0 -0.625 0.609375 -1.0625q0.328125 -0.21875 1.078125 -0.21875l0.359375 0l2.046875 -9.65625l-0.359375 0q-0.71875 0 -0.984375 -0.21875q-0.25 -0.21875 -0.25 -0.625q0 -0.625 0.59375 -1.046875q0.34375 -0.234375 1.09375 -0.234375l2.5 0l-0.15625 0.71875q1.71875 -1.0 3.421875 -1.0q1.90625 0 3.109375 1.171875q1.203125 1.15625 1.203125 2.828125q0 1.296875 -0.828125 2.609375q-0.828125 1.296875 -2.421875 2.109375q-1.578125 0.796875 -3.0625 0.796875q-1.65625 0 -3.015625 -0.953125zm3.40625 -1.1875q1.515625 0 2.625 -0.9375q1.109375 -0.9375 1.109375 -1.859375q0 -1.046875 -0.71875 -1.75q-0.71875 -0.703125 -1.890625 -0.703125q-1.5 0 -2.65625 1.0625q-1.140625 1.0625 -1.140625 2.03125q0 0.828125 0.734375 1.5q0.734375 0.65625 1.9375 0.65625zm17.908325 -1.28125l-8.75 0q0.140625 0.8125 0.875 1.328125q0.734375 0.515625 2.1875 0.515625q1.203125 0 3.28125 -0.5q0.859375 -0.21875 1.1875 -0.21875q0.34375 0 0.5625 0.234375q0.234375 0.21875 0.234375 0.578125q0 0.53125 -0.484375 0.953125q-0.46875 0.40625 -2.234375 0.75q-1.75 0.34375 -3.15625 0.34375q-2.234375 0 -3.453125 -1.109375q-1.203125 -1.125 -1.203125 -2.875q0 -1.4375 0.875 -2.890625q0.875 -1.46875 2.5 -2.328125q1.640625 -0.875 3.359375 -0.875q2.015625 0 3.265625 1.109375q1.265625 1.109375 1.265625 3.109375q0 0.4375 -0.109375 0.96875l-0.203125 0.90625zm-1.90625 -2.140625q-0.28125 -0.875 -0.984375 -1.34375q-0.6875 -0.484375 -1.78125 -0.484375q-1.09375 0 -1.984375 0.453125q-0.890625 0.453125 -1.578125 1.375l6.328125 0z" fill-rule="nonzero"/><path fill="#000000" fill-opacity="0.0" d="m589.37006 71.98688l115.49603 0l0 41.007874l-115.49603 0z" fill-rule="evenodd"/><path fill="#000000" d="m603.3232 92.01375l-0.078125 0.625q0.671875 -0.515625 1.140625 -0.703125q0.484375 -0.203125 0.984375 -0.203125q1.015625 0 1.71875 0.90625q0.640625 -0.46875 1.265625 -0.6875q0.625 -0.21875 1.21875 -0.21875q1.09375 0 1.71875 0.609375q0.640625 0.59375 0.640625 1.578125q0 0.296875 -0.078125 0.625l-1.015625 4.78125q0.625 0 0.875 0.234375q0.25 0.21875 0.25 0.609375q0 0.65625 -0.625 1.078125q-0.3125 0.21875 -1.0625 0.21875l-2.015625 0l1.421875 -6.734375q0.046875 -0.234375 0.046875 -0.40625q0 -0.21875 -0.140625 -0.34375q-0.140625 -0.125 -0.4375 -0.125q-0.34375 0 -0.671875 0.1875q-0.453125 0.25 -1.15625 0.984375l-0.921875 4.296875q0.609375 0 0.859375 0.234375q0.25 0.21875 0.25 0.609375q0 0.65625 -0.609375 1.078125q-0.328125 0.21875 -1.0625 0.21875l-2.03125 0l1.4375 -6.734375q0.046875 -0.21875 0.046875 -0.40625q0 -0.203125 -0.15625 -0.328125q-0.140625 -0.140625 -0.421875 -0.140625q-0.390625 0 -0.734375 0.203125q-0.46875 0.265625 -1.140625 0.96875l-0.921875 4.296875q0.625 0 0.875 0.234375q0.25 0.21875 0.25 0.609375q0 0.65625 -0.625 1.078125q-0.3125 0.21875 -1.0625 0.21875l-1.921875 0q-0.703125 0 -0.96875 -0.21875q-0.25 -0.234375 -0.25 -0.625q0 -0.515625 0.421875 -0.90625q0.421875 -0.390625 1.15625 -0.390625l1.09375 -5.1875q-0.625 0 -0.875 -0.21875q-0.25 -0.234375 -0.25 -0.625q0 -0.625 0.59375 -1.046875q0.34375 -0.234375 1.09375 -0.234375l1.875 0zm20.377075 5.8125l-8.75 0q0.140625 0.8125 0.875 1.328125q0.734375 0.515625 2.1875 0.515625q1.203125 0 3.28125 -0.5q0.859375 -0.21875 1.1875 -0.21875q0.34375 0 0.5625 0.234375q0.234375 0.21875 0.234375 0.578125q0 0.53125 -0.484375 0.953125q-0.46875 0.40625 -2.234375 0.75q-1.75 0.34375 -3.15625 0.34375q-2.234375 0 -3.453125 -1.109375q-1.203125 -1.125 -1.203125 -2.875q0 -1.4375 0.875 -2.890625q0.875 -1.46875 2.5 -2.328125q1.640625 -0.875 3.359375 -0.875q2.015625 0 3.265625 1.109375q1.265625 1.109375 1.265625 3.109375q0 0.4375 -0.109375 0.96875l-0.203125 0.90625zm-1.90625 -2.140625q-0.28125 -0.875 -0.984375 -1.34375q-0.6875 -0.484375 -1.78125 -0.484375q-1.09375 0 -1.984375 0.453125q-0.890625 0.453125 -1.578125 1.375l6.328125 0zm12.345825 -1.171875q-0.4375 -0.328125 -0.984375 -0.484375q-0.53125 -0.171875 -1.171875 -0.171875q-1.015625 0 -1.734375 0.28125q-0.71875 0.28125 -0.71875 0.5625q0 0.1875 0.234375 0.34375q0.328125 0.234375 1.53125 0.40625q1.84375 0.25 2.703125 0.53125q0.859375 0.28125 1.359375 0.90625q0.515625 0.625 0.515625 1.390625q0 1.53125 -1.640625 2.53125q-1.640625 1.0 -3.8125 1.0q-0.9375 0 -1.703125 -0.171875q-0.75 -0.15625 -1.328125 -0.46875q-0.390625 0.28125 -0.75 0.28125q-0.40625 0 -0.65625 -0.234375q-0.234375 -0.234375 -0.234375 -0.546875q0 -0.21875 0.09375 -0.640625l0.15625 -0.71875q0.15625 -0.78125 0.515625 -1.09375q0.375 -0.328125 0.859375 -0.328125q0.390625 0 0.59375 0.21875q0.203125 0.203125 0.25 0.71875q0.390625 0.421875 1.03125 0.640625q0.65625 0.203125 1.546875 0.203125q1.578125 0 2.484375 -0.5q0.40625 -0.234375 0.40625 -0.53125q0 -0.40625 -0.5 -0.640625q-0.5 -0.234375 -2.109375 -0.40625q-2.296875 -0.25 -3.015625 -0.859375q-0.71875 -0.59375 -0.71875 -1.546875q0 -0.828125 0.53125 -1.5625q0.53125 -0.734375 1.59375 -1.25q1.375 -0.640625 2.953125 -0.640625q0.75 0 1.40625 0.140625q0.65625 0.140625 1.203125 0.421875q0.453125 -0.28125 0.75 -0.28125q0.328125 0 0.5625 0.234375q0.25 0.234375 0.25 0.546875q0 0.21875 -0.09375 0.640625l-0.109375 0.515625q-0.171875 0.78125 -0.546875 1.109375q-0.359375 0.328125 -0.84375 0.328125q-0.375 0 -0.625 -0.234375q-0.234375 -0.25 -0.234375 -0.640625zm12.79895 0q-0.4375 -0.328125 -0.984375 -0.484375q-0.53125 -0.171875 -1.171875 -0.171875q-1.015625 0 -1.734375 0.28125q-0.71875 0.28125 -0.71875 0.5625q0 0.1875 0.234375 0.34375q0.328125 0.234375 1.53125 0.40625q1.84375 0.25 2.703125 0.53125q0.859375 0.28125 1.359375 0.90625q0.515625 0.625 0.515625 1.390625q0 1.53125 -1.640625 2.53125q-1.640625 1.0 -3.8125 1.0q-0.9375 0 -1.703125 -0.171875q-0.75 -0.15625 -1.328125 -0.46875q-0.390625 0.28125 -0.75 0.28125q-0.40625 0 -0.65625 -0.234375q-0.234375 -0.234375 -0.234375 -0.546875q0 -0.21875 0.09375 -0.640625l0.15625 -0.71875q0.15625 -0.78125 0.515625 -1.09375q0.375 -0.328125 0.859375 -0.328125q0.390625 0 0.59375 0.21875q0.203125 0.203125 0.25 0.71875q0.390625 0.421875 1.03125 0.640625q0.65625 0.203125 1.546875 0.203125q1.578125 0 2.484375 -0.5q0.40625 -0.234375 0.40625 -0.53125q0 -0.40625 -0.5 -0.640625q-0.5 -0.234375 -2.109375 -0.40625q-2.296875 -0.25 -3.015625 -0.859375q-0.71875 -0.59375 -0.71875 -1.546875q0 -0.828125 0.53125 -1.5625q0.53125 -0.734375 1.59375 -1.25q1.375 -0.640625 2.953125 -0.640625q0.75 0 1.40625 0.140625q0.65625 0.140625 1.203125 0.421875q0.453125 -0.28125 0.75 -0.28125q0.328125 0 0.5625 0.234375q0.25 0.234375 0.25 0.546875q0 0.21875 -0.09375 0.640625l-0.109375 0.515625q-0.171875 0.78125 -0.546875 1.109375q-0.359375 0.328125 -0.84375 0.328125q-0.375 0 -0.625 -0.234375q-0.234375 -0.25 -0.234375 -0.640625zm10.939636 6.953125l0.109375 -0.5q-1.78125 0.84375 -3.78125 0.84375q-1.46875 0 -2.34375 -0.75q-0.875 -0.75 -0.875 -1.703125q0 -0.78125 0.59375 -1.65625q0.8125 -1.15625 2.234375 -1.796875q1.421875 -0.65625 3.15625 -0.65625q0.953125 0 2.1875 0.203125l0.109375 -0.5q0.015625 -0.109375 0.015625 -0.21875q0 -0.375 -0.296875 -0.59375q-0.40625 -0.28125 -1.46875 -0.28125q-0.984375 0 -2.53125 0.375q-0.59375 0.140625 -0.921875 0.140625q-0.34375 0 -0.578125 -0.21875q-0.21875 -0.234375 -0.21875 -0.609375q0 -0.53125 0.328125 -0.859375q0.328125 -0.34375 1.828125 -0.640625q1.5 -0.3125 2.5625 -0.3125q1.75 0 2.609375 0.71875q0.875 0.71875 0.875 1.765625q0 0.328125 -0.0625 0.71875l-0.9375 4.390625l0.359375 0q0.71875 0 0.96875 0.21875q0.25 0.21875 0.25 0.625q0 0.65625 -0.609375 1.078125q-0.328125 0.21875 -1.0625 0.21875l-2.5 0zm0.8125 -3.828125q-1.21875 -0.25 -2.3125 -0.25q-1.421875 0 -2.5625 0.765625q-0.65625 0.421875 -0.65625 0.8125q0 0.3125 0.453125 0.515625q0.453125 0.203125 1.15625 0.203125q0.75 0 1.796875 -0.296875q1.046875 -0.296875 1.921875 -0.828125l0.203125 -0.921875zm14.04895 -5.21875l0.375 -0.40625l2.5 0q0.71875 0 0.96875 0.21875q0.265625 0.21875 0.265625 0.625q0 0.625 -0.59375 1.046875q-0.328125 0.234375 -1.078125 0.234375l-0.375 0l-1.65625 7.78125q-0.234375 1.09375 -0.875 1.9375q-0.640625 0.84375 -1.765625 1.453125q-1.125 0.609375 -2.34375 0.609375l-2.40625 0q-0.71875 0 -0.96875 -0.21875q-0.25 -0.21875 -0.25 -0.625q0 -0.640625 0.609375 -1.0625q0.328125 -0.21875 1.046875 -0.21875l2.359375 0q0.984375 0 1.640625 -0.53125q0.65625 -0.53125 0.828125 -1.34375l0.21875 -1.046875q-0.796875 0.453125 -1.59375 0.6875q-0.78125 0.234375 -1.546875 0.234375q-1.875 0 -3.015625 -1.109375q-1.140625 -1.109375 -1.140625 -2.796875q0 -1.515625 0.828125 -2.96875q0.828125 -1.46875 2.34375 -2.34375q1.515625 -0.875 3.140625 -0.875q0.6875 0 1.234375 0.15625q0.546875 0.15625 1.25 0.5625zm-4.234375 7.21875q1.4375 0 2.546875 -1.078125q1.125 -1.078125 1.125 -2.421875q0 -0.96875 -0.6875 -1.640625q-0.671875 -0.671875 -1.6875 -0.671875q-1.4375 0 -2.5625 1.09375q-1.109375 1.09375 -1.109375 2.40625q0 1.0 0.671875 1.65625q0.671875 0.65625 1.703125 0.65625zm19.189575 -1.8125l-8.75 0q0.140625 0.8125 0.875 1.328125q0.734375 0.515625 2.1875 0.515625q1.203125 0 3.28125 -0.5q0.859375 -0.21875 1.1875 -0.21875q0.34375 0 0.5625 0.234375q0.234375 0.21875 0.234375 0.578125q0 0.53125 -0.484375 0.953125q-0.46875 0.40625 -2.234375 0.75q-1.75 0.34375 -3.15625 0.34375q-2.234375 0 -3.453125 -1.109375q-1.203125 -1.125 -1.203125 -2.875q0 -1.4375 0.875 -2.890625q0.875 -1.46875 2.5 -2.328125q1.640625 -0.875 3.359375 -0.875q2.015625 0 3.265625 1.109375q1.265625 1.109375 1.265625 3.109375q0 0.4375 -0.109375 0.96875l-0.203125 0.90625zm-1.90625 -2.140625q-0.28125 -0.875 -0.984375 -1.34375q-0.6875 -0.484375 -1.78125 -0.484375q-1.09375 0 -1.984375 0.453125q-0.890625 0.453125 -1.578125 1.375l6.328125 0z" fill-rule="nonzero"/><path fill="#000000" fill-opacity="0.0" d="m280.12598 151.979c0 11.602325 -1.5675354 21.007874 -3.5011597 21.007874l-103.24625 0c-1.9336395 0 -3.5011597 9.405548 -3.5011597 21.007874l0 0c0 -11.602325 -1.5675354 -21.007874 -3.501175 -21.007874l-104.76483 0l0 0c-1.9336433 0 -3.501171 -9.405548 -3.501171 -21.007874z" fill-rule="evenodd"/><path fill="#000000" fill-opacity="0.0" d="m280.12598 151.979c0 11.602325 -1.5675354 21.007874 -3.5011597 21.007874l-103.24625 0c-1.9336395 0 -3.5011597 9.405548 -3.5011597 21.007874l0 0c0 -11.602325 -1.5675354 -21.007874 -3.501175 -21.007874l-104.76483 0l0 0c-1.9336433 0 -3.501171 -9.405548 -3.501171 -21.007874" fill-rule="evenodd"/><path stroke="#000000" stroke-width="1.0" stroke-linejoin="round" stroke-linecap="butt" d="m280.12598 151.979c0 11.602325 -1.5675354 21.007874 -3.5011597 21.007874l-103.24625 0c-1.9336395 0 -3.5011597 9.405548 -3.5011597 21.007874l0 0c0 -11.602325 -1.5675354 -21.007874 -3.501175 -21.007874l-104.76483 0l0 0c-1.9336433 0 -3.501171 -9.405548 -3.501171 -21.007874" fill-rule="evenodd"/><path fill="#000000" fill-opacity="0.0" d="m106.36257 193.99475l115.49607 0l0 41.007874l-115.49607 0z" fill-rule="evenodd"/><path fill="#000000" d="m134.88628 209.1335l0 7.296875q0.59375 0 0.875 0.265625q0.28125 0.25 0.28125 0.671875q0 0.40625 -0.28125 0.671875q-0.28125 0.265625 -0.875 0.265625l0 0.734375q0.59375 0 0.875 0.265625q0.28125 0.265625 0.28125 0.6875q0 0.40625 -0.28125 0.671875q-0.28125 0.25 -0.953125 0.25l-2.515625 0q-0.671875 0 -0.96875 -0.25q-0.28125 -0.265625 -0.28125 -0.6875q0 -0.40625 0.28125 -0.671875q0.296875 -0.265625 0.96875 -0.265625l0.734375 0l0 -0.734375l-5.0781326 0l0 -1.5625l4.4687576 -7.609375l2.46875 0zm-1.859375 7.296875l0 -4.59375l-2.703125 4.59375l2.703125 0zm19.172394 -7.328125l0 4.1875q0.671875 -0.453125 1.375 -0.671875q0.71875 -0.21875 1.4375 -0.21875q1.9375 0 3.28125 1.34375q1.34375 1.328125 1.34375 3.234375q0 1.8125 -1.28125 3.03125q-1.28125 1.203125 -3.390625 1.203125q-0.734375 0 -1.4375 -0.1875q-0.6875 -0.1875 -1.328125 -0.5625l0 0.453125l-2.1875 0q-0.6875 0 -0.96875 -0.25q-0.28125 -0.265625 -0.28125 -0.6875q0 -0.40625 0.28125 -0.671875q0.296875 -0.265625 0.96875 -0.265625l0.3125 0l0 -8.078125l-0.3125 0q-0.6875 0 -0.96875 -0.25q-0.28125 -0.265625 -0.28125 -0.6875q0 -0.40625 0.28125 -0.65625q0.28125 -0.265625 0.96875 -0.265625l2.1875 0zm5.578125 7.921875q0 -1.15625 -0.8125 -1.953125q-0.8125 -0.8125 -1.984375 -0.8125q-1.171875 0 -1.984375 0.8125q-0.796875 0.796875 -0.796875 1.921875q0 1.03125 0.71875 1.703125q0.734375 0.65625 2.0625 0.65625q1.328125 0 2.0625 -0.65625q0.734375 -0.671875 0.734375 -1.671875zm6.929947 3.828125l-3.234375 -6.34375q-0.46875 -0.046875 -0.703125 -0.296875q-0.234375 -0.265625 -0.234375 -0.625q0 -0.421875 0.28125 -0.671875q0.296875 -0.265625 0.96875 -0.265625l1.703125 0q0.671875 0 0.953125 0.265625q0.296875 0.25 0.296875 0.671875q0 0.40625 -0.296875 0.671875q-0.28125 0.25 -0.90625 0.25l2.21875 4.296875l2.171875 -4.296875q-0.59375 0 -0.890625 -0.25q-0.28125 -0.265625 -0.28125 -0.6875q0 -0.40625 0.28125 -0.65625q0.296875 -0.265625 0.96875 -0.265625l1.765625 0q0.65625 0 0.9375 0.265625q0.296875 0.25 0.296875 0.671875q0 0.375 -0.25 0.640625q-0.25 0.25 -0.71875 0.28125l-4.28125 8.4375q0.6875 0 0.90625 0.140625q0.4375 0.28125 0.4375 0.796875q0 0.40625 -0.28125 0.671875q-0.28125 0.265625 -0.953125 0.265625l-4.078125 0q-0.671875 0 -0.96875 -0.265625q-0.28125 -0.265625 -0.28125 -0.671875q0 -0.421875 0.28125 -0.6875q0.296875 -0.25 0.96875 -0.25l1.859375 0l1.0625 -2.09375zm11.773697 -6.34375l0 3.75q0 0.59375 0.25 0.78125q0.375 0.3125 1.359375 0.3125q1.4375 0 2.640625 -0.609375q0.46875 -0.234375 0.734375 -0.234375q0.359375 0 0.625 0.265625q0.265625 0.265625 0.265625 0.671875q0 0.359375 -0.28125 0.625q-0.453125 0.421875 -1.765625 0.78125q-1.3125 0.359375 -2.21875 0.359375q-1.734375 0 -2.609375 -0.75q-0.875 -0.75 -0.875 -1.84375l0 -4.109375l-0.671875 0q-0.671875 0 -0.96875 -0.25q-0.28125 -0.265625 -0.28125 -0.6875q0 -0.40625 0.28125 -0.65625q0.296875 -0.265625 0.96875 -0.265625l0.671875 0l0 -1.6875q0 -0.671875 0.265625 -0.953125q0.265625 -0.296875 0.671875 -0.296875q0.421875 0 0.671875 0.296875q0.265625 0.28125 0.265625 0.953125l0 1.6875l3.453125 0q0.671875 0 0.953125 0.265625q0.296875 0.25 0.296875 0.671875q0 0.40625 -0.296875 0.671875q-0.28125 0.25 -0.953125 0.25l-3.453125 0zm16.336197 3.21875l-7.65625 0q0.296875 0.734375 1.03125 1.1875q0.75 0.4375 2.015625 0.4375q1.03125 0 2.75 -0.453125q0.71875 -0.1875 0.984375 -0.1875q0.375 0 0.625 0.265625q0.265625 0.265625 0.265625 0.671875q0 0.359375 -0.28125 0.625q-0.359375 0.328125 -1.78125 0.640625q-1.40625 0.296875 -2.703125 0.296875q-2.25 0 -3.59375 -1.265625q-1.34375 -1.265625 -1.34375 -3.109375q0 -1.96875 1.453125 -3.203125q1.453125 -1.234375 3.359375 -1.234375q1.140625 0 2.078125 0.40625q0.953125 0.390625 1.421875 0.859375q0.65625 0.671875 1.09375 1.671875q0.28125 0.6875 0.28125 1.59375l0 0.796875zm-2.0625 -1.875q-0.4375 -0.796875 -1.125 -1.1875q-0.6875 -0.40625 -1.640625 -0.40625q-0.953125 0 -1.65625 0.40625q-0.6875 0.390625 -1.125 1.1875l5.546875 0zm10.586197 -1.015625q-0.453125 -0.296875 -0.953125 -0.4375q-0.5 -0.140625 -1.046875 -0.140625q-1.078125 0 -1.71875 0.359375q-0.28125 0.15625 -0.28125 0.34375q0 0.203125 0.375 0.40625q0.296875 0.140625 1.3125 0.28125q1.859375 0.25 2.578125 0.515625q0.96875 0.328125 1.484375 1.0q0.515625 0.65625 0.515625 1.40625q0 1.0 -0.890625 1.671875q-1.265625 0.96875 -3.28125 0.96875q-0.8125 0 -1.5 -0.140625q-0.6875 -0.140625 -1.265625 -0.40625q-0.125 0.109375 -0.28125 0.171875q-0.15625 0.0625 -0.328125 0.0625q-0.4375 0 -0.703125 -0.28125q-0.25 -0.28125 -0.25 -0.953125l0 -0.640625q0 -0.671875 0.25 -0.953125q0.265625 -0.296875 0.6875 -0.296875q0.34375 0 0.5625 0.1875q0.234375 0.1875 0.359375 0.640625q0.421875 0.375 1.015625 0.5625q0.609375 0.1875 1.390625 0.1875q1.296875 0 2.0 -0.40625q0.34375 -0.203125 0.34375 -0.421875q0 -0.359375 -0.484375 -0.59375q-0.484375 -0.234375 -2.0 -0.40625q-2.25 -0.234375 -3.0 -0.90625q-0.765625 -0.671875 -0.765625 -1.640625q0 -1.0 0.859375 -1.671875q1.140625 -0.90625 3.0 -0.90625q0.640625 0 1.234375 0.125q0.609375 0.125 1.15625 0.375q0.171875 -0.125 0.3125 -0.1875q0.15625 -0.0625 0.28125 -0.0625q0.390625 0 0.640625 0.28125q0.25 0.28125 0.25 0.96875l0 0.453125q0 0.609375 -0.140625 0.828125q-0.296875 0.421875 -0.796875 0.421875q-0.328125 0 -0.59375 -0.203125q-0.25 -0.21875 -0.328125 -0.5625z" fill-rule="nonzero"/><path fill="#000000" fill-opacity="0.0" d="m348.3547 193.99475l115.49606 0l0 41.007874l-115.49606 0z" fill-rule="evenodd"/><path fill="#000000" d="m376.8784 209.1335l0 7.296875q0.59375 0 0.875 0.265625q0.28125 0.25 0.28125 0.671875q0 0.40625 -0.28125 0.671875q-0.28125 0.265625 -0.875 0.265625l0 0.734375q0.59375 0 0.875 0.265625q0.28125 0.265625 0.28125 0.6875q0 0.40625 -0.28125 0.671875q-0.28125 0.25 -0.953125 0.25l-2.515625 0q-0.671875 0 -0.96875 -0.25q-0.28125 -0.265625 -0.28125 -0.6875q0 -0.40625 0.28125 -0.671875q0.296875 -0.265625 0.96875 -0.265625l0.734375 0l0 -0.734375l-5.078125 0l0 -1.5625l4.46875 -7.609375l2.46875 0zm-1.859375 7.296875l0 -4.59375l-2.703125 4.59375l2.703125 0zm19.172394 -7.328125l0 4.1875q0.671875 -0.453125 1.375 -0.671875q0.71875 -0.21875 1.4375 -0.21875q1.9375 0 3.28125 1.34375q1.34375 1.328125 1.34375 3.234375q0 1.8125 -1.28125 3.03125q-1.28125 1.203125 -3.390625 1.203125q-0.734375 0 -1.4375 -0.1875q-0.6875 -0.1875 -1.328125 -0.5625l0 0.453125l-2.1875 0q-0.6875 0 -0.96875 -0.25q-0.28125 -0.265625 -0.28125 -0.6875q0 -0.40625 0.28125 -0.671875q0.296875 -0.265625 0.96875 -0.265625l0.3125 0l0 -8.078125l-0.3125 0q-0.6875 0 -0.96875 -0.25q-0.28125 -0.265625 -0.28125 -0.6875q0 -0.40625 0.28125 -0.65625q0.28125 -0.265625 0.96875 -0.265625l2.1875 0zm5.578125 7.921875q0 -1.15625 -0.8125 -1.953125q-0.8125 -0.8125 -1.984375 -0.8125q-1.171875 0 -1.984375 0.8125q-0.796875 0.796875 -0.796875 1.921875q0 1.03125 0.71875 1.703125q0.734375 0.65625 2.0625 0.65625q1.328125 0 2.0625 -0.65625q0.734375 -0.671875 0.734375 -1.671875zm6.929962 3.828125l-3.234375 -6.34375q-0.46875 -0.046875 -0.703125 -0.296875q-0.234375 -0.265625 -0.234375 -0.625q0 -0.421875 0.28125 -0.671875q0.296875 -0.265625 0.96875 -0.265625l1.703125 0q0.671875 0 0.953125 0.265625q0.296875 0.25 0.296875 0.671875q0 0.40625 -0.296875 0.671875q-0.28125 0.25 -0.90625 0.25l2.21875 4.296875l2.171875 -4.296875q-0.59375 0 -0.890625 -0.25q-0.28125 -0.265625 -0.28125 -0.6875q0 -0.40625 0.28125 -0.65625q0.296875 -0.265625 0.96875 -0.265625l1.765625 0q0.65625 0 0.9375 0.265625q0.296875 0.25 0.296875 0.671875q0 0.375 -0.25 0.640625q-0.25 0.25 -0.71875 0.28125l-4.28125 8.4375q0.6875 0 0.90625 0.140625q0.4375 0.28125 0.4375 0.796875q0 0.40625 -0.28125 0.671875q-0.28125 0.265625 -0.953125 0.265625l-4.078125 0q-0.671875 0 -0.96875 -0.265625q-0.28125 -0.265625 -0.28125 -0.671875q0 -0.421875 0.28125 -0.6875q0.296875 -0.25 0.96875 -0.25l1.859375 0l1.0625 -2.09375zm11.773682 -6.34375l0 3.75q0 0.59375 0.25 0.78125q0.375 0.3125 1.359375 0.3125q1.4375 0 2.640625 -0.609375q0.46875 -0.234375 0.734375 -0.234375q0.359375 0 0.625 0.265625q0.265625 0.265625 0.265625 0.671875q0 0.359375 -0.28125 0.625q-0.453125 0.421875 -1.765625 0.78125q-1.3125 0.359375 -2.21875 0.359375q-1.734375 0 -2.609375 -0.75q-0.875 -0.75 -0.875 -1.84375l0 -4.109375l-0.671875 0q-0.671875 0 -0.96875 -0.25q-0.28125 -0.265625 -0.28125 -0.6875q0 -0.40625 0.28125 -0.65625q0.296875 -0.265625 0.96875 -0.265625l0.671875 0l0 -1.6875q0 -0.671875 0.265625 -0.953125q0.265625 -0.296875 0.671875 -0.296875q0.421875 0 0.671875 0.296875q0.265625 0.28125 0.265625 0.953125l0 1.6875l3.453125 0q0.671875 0 0.953125 0.265625q0.296875 0.25 0.296875 0.671875q0 0.40625 -0.296875 0.671875q-0.28125 0.25 -0.953125 0.25l-3.453125 0zm16.336212 3.21875l-7.65625 0q0.296875 0.734375 1.03125 1.1875q0.75 0.4375 2.015625 0.4375q1.03125 0 2.75 -0.453125q0.71875 -0.1875 0.984375 -0.1875q0.375 0 0.625 0.265625q0.265625 0.265625 0.265625 0.671875q0 0.359375 -0.28125 0.625q-0.359375 0.328125 -1.78125 0.640625q-1.40625 0.296875 -2.703125 0.296875q-2.25 0 -3.59375 -1.265625q-1.34375 -1.265625 -1.34375 -3.109375q0 -1.96875 1.453125 -3.203125q1.453125 -1.234375 3.359375 -1.234375q1.140625 0 2.078125 0.40625q0.953125 0.390625 1.421875 0.859375q0.65625 0.671875 1.09375 1.671875q0.28125 0.6875 0.28125 1.59375l0 0.796875zm-2.0625 -1.875q-0.4375 -0.796875 -1.125 -1.1875q-0.6875 -0.40625 -1.640625 -0.40625q-0.953125 0 -1.65625 0.40625q-0.6875 0.390625 -1.125 1.1875l5.546875 0zm10.586182 -1.015625q-0.453125 -0.296875 -0.953125 -0.4375q-0.5 -0.140625 -1.046875 -0.140625q-1.078125 0 -1.71875 0.359375q-0.28125 0.15625 -0.28125 0.34375q0 0.203125 0.375 0.40625q0.296875 0.140625 1.3125 0.28125q1.859375 0.25 2.578125 0.515625q0.96875 0.328125 1.484375 1.0q0.515625 0.65625 0.515625 1.40625q0 1.0 -0.890625 1.671875q-1.265625 0.96875 -3.28125 0.96875q-0.8125 0 -1.5 -0.140625q-0.6875 -0.140625 -1.265625 -0.40625q-0.125 0.109375 -0.28125 0.171875q-0.15625 0.0625 -0.328125 0.0625q-0.4375 0 -0.703125 -0.28125q-0.25 -0.28125 -0.25 -0.953125l0 -0.640625q0 -0.671875 0.25 -0.953125q0.265625 -0.296875 0.6875 -0.296875q0.34375 0 0.5625 0.1875q0.234375 0.1875 0.359375 0.640625q0.421875 0.375 1.015625 0.5625q0.609375 0.1875 1.390625 0.1875q1.296875 0 2.0 -0.40625q0.34375 -0.203125 0.34375 -0.421875q0 -0.359375 -0.484375 -0.59375q-0.484375 -0.234375 -2.0 -0.40625q-2.25 -0.234375 -3.0 -0.90625q-0.765625 -0.671875 -0.765625 -1.640625q0 -1.0 0.859375 -1.671875q1.140625 -0.90625 3.0 -0.90625q0.640625 0 1.234375 0.125q0.609375 0.125 1.15625 0.375q0.171875 -0.125 0.3125 -0.1875q0.15625 -0.0625 0.28125 -0.0625q0.390625 0 0.640625 0.28125q0.25 0.28125 0.25 0.96875l0 0.453125q0 0.609375 -0.140625 0.828125q-0.296875 0.421875 -0.796875 0.421875q-0.328125 0 -0.59375 -0.203125q-0.25 -0.21875 -0.328125 -0.5625z" fill-rule="nonzero"/><path fill="#000000" fill-opacity="0.0" d="m562.1102 193.99475l170.01575 0l0 41.007874l-170.01575 0z" fill-rule="evenodd"/><path fill="#000000" d="m591.21204 214.83662q-0.390625 -0.296875 -0.875 -0.4375q-0.46875 -0.140625 -1.015625 -0.140625q-0.890625 0 -1.53125 0.25q-0.625 0.234375 -0.625 0.484375q0 0.171875 0.21875 0.3125q0.28125 0.203125 1.328125 0.34375q1.625 0.234375 2.375 0.484375q0.75 0.234375 1.1875 0.78125q0.453125 0.546875 0.453125 1.21875q0 1.328125 -1.4375 2.203125q-1.4375 0.875 -3.34375 0.875q-0.8125 0 -1.484375 -0.140625q-0.65625 -0.140625 -1.171875 -0.40625q-0.328125 0.234375 -0.640625 0.234375q-0.359375 0 -0.578125 -0.203125q-0.203125 -0.203125 -0.203125 -0.484375q0 -0.1875 0.078125 -0.546875l0.140625 -0.640625q0.125 -0.671875 0.453125 -0.953125q0.328125 -0.296875 0.75 -0.296875q0.328125 0 0.515625 0.1875q0.1875 0.1875 0.21875 0.640625q0.34375 0.375 0.90625 0.5625q0.5625 0.1875 1.34375 0.1875q1.375 0 2.171875 -0.453125q0.359375 -0.203125 0.359375 -0.453125q0 -0.359375 -0.4375 -0.5625q-0.4375 -0.203125 -1.84375 -0.359375q-2.015625 -0.21875 -2.640625 -0.75q-0.625 -0.53125 -0.625 -1.359375q0 -0.71875 0.453125 -1.359375q0.46875 -0.640625 1.40625 -1.09375q1.203125 -0.5625 2.578125 -0.5625q0.65625 0 1.21875 0.125q0.578125 0.125 1.078125 0.375q0.390625 -0.25 0.640625 -0.25q0.296875 0 0.5 0.203125q0.21875 0.203125 0.21875 0.46875q0 0.203125 -0.078125 0.578125l-0.09375 0.453125q-0.15625 0.671875 -0.484375 0.96875q-0.3125 0.28125 -0.734375 0.28125q-0.34375 0 -0.546875 -0.203125q-0.203125 -0.21875 -0.203125 -0.5625zm11.070618 -5.734375l-0.421875 1.96875l-2.21875 0l0.421875 -1.96875l2.21875 0zm-0.484375 3.546875l-1.375 6.390625l2.25 0q0.625 0 0.84375 0.203125q0.21875 0.1875 0.21875 0.546875q0 0.5625 -0.546875 0.9375q-0.265625 0.1875 -0.921875 0.1875l-6.359375 0q-0.609375 0 -0.84375 -0.1875q-0.21875 -0.203125 -0.21875 -0.546875q0 -0.5625 0.53125 -0.9375q0.296875 -0.203125 0.9375 -0.203125l2.25 0l0.953125 -4.53125l-1.5 0q-0.609375 0 -0.84375 -0.1875q-0.21875 -0.203125 -0.21875 -0.546875q0 -0.546875 0.515625 -0.921875q0.28125 -0.203125 0.953125 -0.203125l3.375 0zm7.8830566 6.390625l3.28125 0q0.140625 -0.515625 0.453125 -0.765625q0.3125 -0.265625 0.703125 -0.265625q0.328125 0 0.53125 0.203125q0.21875 0.203125 0.21875 0.484375q0 0.1875 -0.078125 0.5625l-0.359375 1.65625l-8.125 0l0.328125 -1.546875l5.953125 -4.859375l-2.859375 0q-0.171875 0.765625 -0.34375 0.984375q-0.375 0.4375 -0.90625 0.4375q-0.3125 0 -0.53125 -0.203125q-0.203125 -0.203125 -0.203125 -0.484375q0 -0.171875 0.078125 -0.546875l0.4375 -2.046875l7.71875 0l-0.3125 1.53125l-5.984375 4.859375zm17.179932 -1.3125l-7.65625 0q0.125 0.71875 0.75 1.171875q0.640625 0.453125 1.921875 0.453125q1.0625 0 2.875 -0.453125q0.75 -0.1875 1.03125 -0.1875q0.296875 0 0.5 0.203125q0.203125 0.203125 0.203125 0.515625q0 0.46875 -0.421875 0.828125q-0.40625 0.359375 -1.953125 0.65625q-1.53125 0.296875 -2.765625 0.296875q-1.953125 0 -3.015625 -0.96875q-1.0625 -0.984375 -1.0625 -2.5q0 -1.28125 0.765625 -2.546875q0.78125 -1.28125 2.203125 -2.03125q1.421875 -0.765625 2.921875 -0.765625q1.765625 0 2.859375 0.984375q1.109375 0.96875 1.109375 2.71875q0 0.359375 -0.09375 0.828125l-0.171875 0.796875zm-1.671875 -1.875q-0.25 -0.765625 -0.859375 -1.171875q-0.609375 -0.421875 -1.5625 -0.421875q-0.96875 0 -1.75 0.40625q-0.765625 0.390625 -1.359375 1.1875l5.53125 0zm12.351807 0.609375l-7.796875 0l0.359375 -1.703125l7.796875 0l-0.359375 1.703125zm11.586243 -7.328125l-1.546875 7.296875q0.515625 0 0.734375 0.203125q0.234375 0.1875 0.234375 0.53125q0 0.46875 -0.375 0.8125q-0.359375 0.328125 -1.0 0.328125l-0.15625 0.734375q0.546875 0 0.75 0.203125q0.21875 0.203125 0.21875 0.546875q0 0.546875 -0.515625 0.921875q-0.296875 0.203125 -0.9375 0.203125l-2.515625 0q-0.625 0 -0.84375 -0.1875q-0.21875 -0.203125 -0.21875 -0.546875q0 -0.5625 0.515625 -0.9375q0.296875 -0.203125 0.9375 -0.203125l0.75 0l0.140625 -0.734375l-5.0625 0l0.328125 -1.5625l6.09375 -7.609375l2.46875 0zm-3.421875 7.296875l0.984375 -4.59375l-3.703125 4.59375l2.71875 0z" fill-rule="nonzero"/><path fill="#000000" d="m663.9248 209.10225l0 4.1875q0.671875 -0.453125 1.375 -0.671875q0.71875 -0.21875 1.4375 -0.21875q1.9375 0 3.28125 1.34375q1.34375 1.328125 1.34375 3.234375q0 1.8125 -1.28125 3.03125q-1.28125 1.203125 -3.390625 1.203125q-0.734375 0 -1.4375 -0.1875q-0.6875 -0.1875 -1.328125 -0.5625l0 0.453125l-2.1875 0q-0.6875 0 -0.96875 -0.25q-0.28125 -0.265625 -0.28125 -0.6875q0 -0.40625 0.28125 -0.671875q0.296875 -0.265625 0.96875 -0.265625l0.3125 0l0 -8.078125l-0.3125 0q-0.6875 0 -0.96875 -0.25q-0.28125 -0.265625 -0.28125 -0.6875q0 -0.40625 0.28125 -0.65625q0.28125 -0.265625 0.96875 -0.265625l2.1875 0zm5.578125 7.921875q0 -1.15625 -0.8125 -1.953125q-0.8125 -0.8125 -1.984375 -0.8125q-1.171875 0 -1.984375 0.8125q-0.796875 0.796875 -0.796875 1.921875q0 1.03125 0.71875 1.703125q0.734375 0.65625 2.0625 0.65625q1.328125 0 2.0625 -0.65625q0.734375 -0.671875 0.734375 -1.671875zm6.9299316 3.828125l-3.234375 -6.34375q-0.46875 -0.046875 -0.703125 -0.296875q-0.234375 -0.265625 -0.234375 -0.625q0 -0.421875 0.28125 -0.671875q0.296875 -0.265625 0.96875 -0.265625l1.703125 0q0.671875 0 0.953125 0.265625q0.296875 0.25 0.296875 0.671875q0 0.40625 -0.296875 0.671875q-0.28125 0.25 -0.90625 0.25l2.21875 4.296875l2.171875 -4.296875q-0.59375 0 -0.890625 -0.25q-0.28125 -0.265625 -0.28125 -0.6875q0 -0.40625 0.28125 -0.65625q0.296875 -0.265625 0.96875 -0.265625l1.765625 0q0.65625 0 0.9375 0.265625q0.296875 0.25 0.296875 0.671875q0 0.375 -0.25 0.640625q-0.25 0.25 -0.71875 0.28125l-4.28125 8.4375q0.6875 0 0.90625 0.140625q0.4375 0.28125 0.4375 0.796875q0 0.40625 -0.28125 0.671875q-0.28125 0.265625 -0.953125 0.265625l-4.078125 0q-0.671875 0 -0.96875 -0.265625q-0.28125 -0.265625 -0.28125 -0.671875q0 -0.421875 0.28125 -0.6875q0.296875 -0.25 0.96875 -0.25l1.859375 0l1.0625 -2.09375zm11.773743 -6.34375l0 3.75q0 0.59375 0.25 0.78125q0.375 0.3125 1.359375 0.3125q1.4375 0 2.640625 -0.609375q0.46875 -0.234375 0.734375 -0.234375q0.359375 0 0.625 0.265625q0.265625 0.265625 0.265625 0.671875q0 0.359375 -0.28125 0.625q-0.453125 0.421875 -1.765625 0.78125q-1.3125 0.359375 -2.21875 0.359375q-1.734375 0 -2.609375 -0.75q-0.875 -0.75 -0.875 -1.84375l0 -4.109375l-0.671875 0q-0.671875 0 -0.96875 -0.25q-0.28125 -0.265625 -0.28125 -0.6875q0 -0.40625 0.28125 -0.65625q0.296875 -0.265625 0.96875 -0.265625l0.671875 0l0 -1.6875q0 -0.671875 0.265625 -0.953125q0.265625 -0.296875 0.671875 -0.296875q0.421875 0 0.671875 0.296875q0.265625 0.28125 0.265625 0.953125l0 1.6875l3.453125 0q0.671875 0 0.953125 0.265625q0.296875 0.25 0.296875 0.671875q0 0.40625 -0.296875 0.671875q-0.28125 0.25 -0.953125 0.25l-3.453125 0zm16.336182 3.21875l-7.65625 0q0.296875 0.734375 1.03125 1.1875q0.75 0.4375 2.015625 0.4375q1.03125 0 2.75 -0.453125q0.71875 -0.1875 0.984375 -0.1875q0.375 0 0.625 0.265625q0.265625 0.265625 0.265625 0.671875q0 0.359375 -0.28125 0.625q-0.359375 0.328125 -1.78125 0.640625q-1.40625 0.296875 -2.703125 0.296875q-2.25 0 -3.59375 -1.265625q-1.34375 -1.265625 -1.34375 -3.109375q0 -1.96875 1.453125 -3.203125q1.453125 -1.234375 3.359375 -1.234375q1.140625 0 2.078125 0.40625q0.953125 0.390625 1.421875 0.859375q0.65625 0.671875 1.09375 1.671875q0.28125 0.6875 0.28125 1.59375l0 0.796875zm-2.0625 -1.875q-0.4375 -0.796875 -1.125 -1.1875q-0.6875 -0.40625 -1.640625 -0.40625q-0.953125 0 -1.65625 0.40625q-0.6875 0.390625 -1.125 1.1875l5.546875 0zm10.586182 -1.015625q-0.453125 -0.296875 -0.953125 -0.4375q-0.5 -0.140625 -1.046875 -0.140625q-1.078125 0 -1.71875 0.359375q-0.28125 0.15625 -0.28125 0.34375q0 0.203125 0.375 0.40625q0.296875 0.140625 1.3125 0.28125q1.859375 0.25 2.578125 0.515625q0.96875 0.328125 1.484375 1.0q0.515625 0.65625 0.515625 1.40625q0 1.0 -0.890625 1.671875q-1.265625 0.96875 -3.28125 0.96875q-0.8125 0 -1.5 -0.140625q-0.6875 -0.140625 -1.265625 -0.40625q-0.125 0.109375 -0.28125 0.171875q-0.15625 0.0625 -0.328125 0.0625q-0.4375 0 -0.703125 -0.28125q-0.25 -0.28125 -0.25 -0.953125l0 -0.640625q0 -0.671875 0.25 -0.953125q0.265625 -0.296875 0.6875 -0.296875q0.34375 0 0.5625 0.1875q0.234375 0.1875 0.359375 0.640625q0.421875 0.375 1.015625 0.5625q0.609375 0.1875 1.390625 0.1875q1.296875 0 2.0 -0.40625q0.34375 -0.203125 0.34375 -0.421875q0 -0.359375 -0.484375 -0.59375q-0.484375 -0.234375 -2.0 -0.40625q-2.25 -0.234375 -3.0 -0.90625q-0.765625 -0.671875 -0.765625 -1.640625q0 -1.0 0.859375 -1.671875q1.140625 -0.90625 3.0 -0.90625q0.640625 0 1.234375 0.125q0.609375 0.125 1.15625 0.375q0.171875 -0.125 0.3125 -0.1875q0.15625 -0.0625 0.28125 -0.0625q0.390625 0 0.640625 0.28125q0.25 0.28125 0.25 0.96875l0 0.453125q0 0.609375 -0.140625 0.828125q-0.296875 0.421875 -0.796875 0.421875q-0.328125 0 -0.59375 -0.203125q-0.25 -0.21875 -0.328125 -0.5625z" fill-rule="nonzero"/><path fill="#000000" fill-opacity="0.0" d="m44.37035 4.9947505l30.992123 0l0 41.007874l-30.992123 0z" fill-rule="evenodd"/><path fill="#000000" d="m63.042225 24.97725l0 2.0625q0 1.8125 -1.0625 3.484375q-1.046875 1.65625 -3.0 1.65625q-1.125 0 -1.90625 -0.484375q-0.78125 -0.5 -1.484375 -1.828125q-0.6875 -1.34375 -0.6875 -2.828125l0 -2.0625q0 -1.8125 1.046875 -3.484375q1.046875 -1.671875 3.0 -1.671875q1.125 0 1.90625 0.5q0.78125 0.484375 1.484375 1.828125q0.703125 1.328125 0.703125 2.828125zm-1.875 0q0 -1.515625 -0.84375 -2.65625q-0.484375 -0.625 -1.359375 -0.625q-0.84375 0 -1.390625 0.6875q-0.8125 1.046875 -0.8125 2.59375l0 2.0625q0 1.515625 0.859375 2.65625q0.484375 0.625 1.359375 0.625q0.84375 0 1.375 -0.6875q0.8125 -1.046875 0.8125 -2.59375l0 -2.0625z" fill-rule="nonzero"/><path fill="#000000" fill-opacity="0.0" d="m274.61444 4.9947505l30.992126 0l0 41.007874l-30.992126 0z" fill-rule="evenodd"/><path fill="#000000" d="m291.94257 20.1335l0 7.296875q0.59375 0 0.875 0.265625q0.28125 0.25 0.28125 0.671875q0 0.40625 -0.28125 0.671875q-0.28125 0.265625 -0.875 0.265625l0 0.734375q0.59375 0 0.875 0.265625q0.28125 0.265625 0.28125 0.6875q0 0.40625 -0.28125 0.671875q-0.28125 0.25 -0.953125 0.25l-2.515625 0q-0.671875 0 -0.96875 -0.25q-0.28125 -0.265625 -0.28125 -0.6875q0 -0.40625 0.28125 -0.671875q0.296875 -0.265625 0.96875 -0.265625l0.734375 0l0 -0.734375l-5.078125 0l0 -1.5625l4.46875 -7.609375l2.46875 0zm-1.859375 7.296875l0 -4.59375l-2.703125 4.59375l2.703125 0z" fill-rule="nonzero"/><path fill="#000000" fill-opacity="0.0" d="m509.61444 4.9947505l30.992126 0l0 41.007874l-30.992126 0z" fill-rule="evenodd"/><path fill="#000000" d="m526.86444 25.946q0.71875 0.5625 1.078125 1.265625q0.359375 0.703125 0.359375 1.546875q0 0.9375 -0.46875 1.734375q-0.453125 0.78125 -1.4375 1.234375q-0.984375 0.453125 -2.1875 0.453125q-1.203125 0 -2.171875 -0.453125q-0.96875 -0.453125 -1.421875 -1.234375q-0.453125 -0.796875 -0.453125 -1.734375q0 -0.84375 0.359375 -1.546875q0.359375 -0.703125 1.078125 -1.265625q-0.640625 -0.578125 -0.953125 -1.234375q-0.3125 -0.65625 -0.3125 -1.390625q0 -1.421875 1.09375 -2.453125q1.09375 -1.046875 2.796875 -1.046875q1.71875 0 2.8125 1.046875q1.09375 1.03125 1.09375 2.453125q0 0.734375 -0.328125 1.390625q-0.3125 0.65625 -0.9375 1.234375zm-0.65625 -2.578125q0 -0.703125 -0.546875 -1.1875q-0.53125 -0.484375 -1.453125 -0.484375q-0.921875 0 -1.46875 0.484375q-0.546875 0.484375 -0.546875 1.1875q0 0.6875 0.546875 1.1875q0.546875 0.484375 1.46875 0.484375q0.921875 0 1.453125 -0.484375q0.546875 -0.5 0.546875 -1.1875zm0.21875 5.484375q0 -0.734375 -0.640625 -1.328125q-0.625 -0.59375 -1.5625 -0.59375q-0.9375 0 -1.578125 0.59375q-0.625 0.59375 -0.625 1.34375q0 0.59375 0.546875 1.03125q0.546875 0.421875 1.65625 0.421875q1.125 0 1.65625 -0.421875q0.546875 -0.4375 0.546875 -1.046875z" fill-rule="nonzero"/><path fill="#000000" fill-opacity="0.0" d="m721.1102 4.9947505l98.51965 0l0 41.007874l-98.51965 0z" fill-rule="evenodd"/><path fill="#000000" d="m739.0165 25.836624q-0.390625 -0.296875 -0.875 -0.4375q-0.46875 -0.140625 -1.015625 -0.140625q-0.890625 0 -1.53125 0.25q-0.625 0.234375 -0.625 0.484375q0 0.171875 0.21875 0.3125q0.28125 0.203125 1.328125 0.34375q1.625 0.234375 2.375 0.484375q0.75 0.234375 1.1875 0.78125q0.453125 0.546875 0.453125 1.21875q0 1.328125 -1.4375 2.203125q-1.4375 0.875 -3.34375 0.875q-0.8125 0 -1.484375 -0.140625q-0.65625 -0.140625 -1.171875 -0.40625q-0.328125 0.234375 -0.640625 0.234375q-0.359375 0 -0.578125 -0.203125q-0.203125 -0.203125 -0.203125 -0.484375q0 -0.1875 0.078125 -0.546875l0.140625 -0.640625q0.125 -0.671875 0.453125 -0.953125q0.328125 -0.296875 0.75 -0.296875q0.328125 0 0.515625 0.1875q0.1875 0.1875 0.21875 0.640625q0.34375 0.375 0.90625 0.5625q0.5625 0.1875 1.34375 0.1875q1.375 0 2.171875 -0.453125q0.359375 -0.203125 0.359375 -0.453125q0 -0.359375 -0.4375 -0.5625q-0.4375 -0.203125 -1.84375 -0.359375q-2.015625 -0.21875 -2.640625 -0.75q-0.625 -0.53125 -0.625 -1.359375q0 -0.71875 0.453125 -1.359375q0.46875 -0.640625 1.40625 -1.09375q1.203125 -0.5625 2.578125 -0.5625q0.65625 0 1.21875 0.125q0.578125 0.125 1.078125 0.375q0.390625 -0.25 0.640625 -0.25q0.296875 0 0.5 0.203125q0.21875 0.203125 0.21875 0.46875q0 0.203125 -0.078125 0.578125l-0.09375 0.453125q-0.15625 0.671875 -0.484375 0.96875q-0.3125 0.28125 -0.734375 0.28125q-0.34375 0 -0.546875 -0.203125q-0.203125 -0.21875 -0.203125 -0.5625zm11.070557 -5.734375l-0.421875 1.96875l-2.21875 0l0.421875 -1.96875l2.21875 0zm-0.484375 3.546875l-1.375 6.390625l2.25 0q0.625 0 0.84375 0.203125q0.21875 0.1875 0.21875 0.546875q0 0.5625 -0.546875 0.9375q-0.265625 0.1875 -0.921875 0.1875l-6.359375 0q-0.609375 0 -0.84375 -0.1875q-0.21875 -0.203125 -0.21875 -0.546875q0 -0.5625 0.53125 -0.9375q0.296875 -0.203125 0.9375 -0.203125l2.25 0l0.953125 -4.53125l-1.5 0q-0.609375 0 -0.84375 -0.1875q-0.21875 -0.203125 -0.21875 -0.546875q0 -0.546875 0.515625 -0.921875q0.28125 -0.203125 0.953125 -0.203125l3.375 0zm7.8830566 6.390625l3.28125 0q0.140625 -0.515625 0.453125 -0.765625q0.3125 -0.265625 0.703125 -0.265625q0.328125 0 0.53125 0.203125q0.21875 0.203125 0.21875 0.484375q0 0.1875 -0.078125 0.5625l-0.359375 1.65625l-8.125 0l0.328125 -1.546875l5.953125 -4.859375l-2.859375 0q-0.171875 0.765625 -0.34375 0.984375q-0.375 0.4375 -0.90625 0.4375q-0.3125 0 -0.53125 -0.203125q-0.203125 -0.203125 -0.203125 -0.484375q0 -0.171875 0.078125 -0.546875l0.4375 -2.046875l7.71875 0l-0.3125 1.53125l-5.984375 4.859375zm17.179993 -1.3125l-7.65625 0q0.125 0.71875 0.75 1.171875q0.640625 0.453125 1.921875 0.453125q1.0625 0 2.875 -0.453125q0.75 -0.1875 1.03125 -0.1875q0.296875 0 0.5 0.203125q0.203125 0.203125 0.203125 0.515625q0 0.46875 -0.421875 0.828125q-0.40625 0.359375 -1.953125 0.65625q-1.53125 0.296875 -2.765625 0.296875q-1.953125 0 -3.015625 -0.96875q-1.0625 -0.984375 -1.0625 -2.5q0 -1.28125 0.765625 -2.546875q0.78125 -1.28125 2.203125 -2.03125q1.421875 -0.765625 2.921875 -0.765625q1.765625 0 2.859375 0.984375q1.109375 0.96875 1.109375 2.71875q0 0.359375 -0.09375 0.828125l-0.171875 0.796875zm-1.671875 -1.875q-0.25 -0.765625 -0.859375 -1.171875q-0.609375 -0.421875 -1.5625 -0.421875q-0.96875 0 -1.75 0.40625q-0.765625 0.390625 -1.359375 1.1875l5.53125 0z" fill-rule="nonzero"/><path fill="#000000" d="m781.42377 27.53975l0 3.125q0 0.671875 -0.265625 0.96875q-0.25 0.28125 -0.65625 0.28125q-0.421875 0 -0.6875 -0.28125q-0.25 -0.296875 -0.25 -0.96875l0 -3.125l-2.671875 0q-0.671875 0 -0.96875 -0.25q-0.28125 -0.265625 -0.28125 -0.6875q0 -0.421875 0.28125 -0.671875q0.296875 -0.265625 0.96875 -0.25l2.671875 0l0 -3.125q0 -0.65625 0.25 -0.953125q0.265625 -0.296875 0.6875 -0.296875q0.40625 0 0.671875 0.296875q0.265625 0.28125 0.265625 0.953125l-0.015625 3.125l2.671875 0q0.671875 0 0.953125 0.25q0.296875 0.25 0.296875 0.671875q0 0.421875 -0.296875 0.6875q-0.28125 0.25 -0.953125 0.25l-2.671875 0zm12.992432 -7.40625l0 7.296875q0.59375 0 0.875 0.265625q0.28125 0.25 0.28125 0.671875q0 0.40625 -0.28125 0.671875q-0.28125 0.265625 -0.875 0.265625l0 0.734375q0.59375 0 0.875 0.265625q0.28125 0.265625 0.28125 0.6875q0 0.40625 -0.28125 0.671875q-0.28125 0.25 -0.953125 0.25l-2.515625 0q-0.671875 0 -0.96875 -0.25q-0.28125 -0.265625 -0.28125 -0.6875q0 -0.40625 0.28125 -0.671875q0.296875 -0.265625 0.96875 -0.265625l0.734375 0l0 -0.734375l-5.078125 0l0 -1.5625l4.46875 -7.609375l2.46875 0zm-1.859375 7.296875l0 -4.59375l-2.703125 4.59375l2.703125 0z" fill-rule="nonzero"/><path fill="#000000" fill-opacity="0.0" d="m517.0945 151.979c0 11.602325 -1.5675049 21.007874 -3.5011597 21.007874l-103.23059 0c-1.9336548 0 -3.5011902 9.405548 -3.5011902 21.007874l0 0c0 -11.602325 -1.5675354 -21.007874 -3.5011597 -21.007874l-104.74896 0l0 0c-1.9336548 0 -3.5011902 -9.405548 -3.5011902 -21.007874z" fill-rule="evenodd"/><path fill="#000000" fill-opacity="0.0" d="m517.0945 151.979c0 11.602325 -1.5675049 21.007874 -3.5011597 21.007874l-103.23059 0c-1.9336548 0 -3.5011902 9.405548 -3.5011902 21.007874l0 0c0 -11.602325 -1.5675354 -21.007874 -3.5011597 -21.007874l-104.74896 0l0 0c-1.9336548 0 -3.5011902 -9.405548 -3.5011902 -21.007874" fill-rule="evenodd"/><path stroke="#000000" stroke-width="1.0" stroke-linejoin="round" stroke-linecap="butt" d="m517.0945 151.979c0 11.602325 -1.5675049 21.007874 -3.5011597 21.007874l-103.23059 0c-1.9336548 0 -3.5011902 9.405548 -3.5011902 21.007874l0 0c0 -11.602325 -1.5675354 -21.007874 -3.5011597 -21.007874l-104.74896 0l0 0c-1.9336548 0 -3.5011902 -9.405548 -3.5011902 -21.007874" fill-rule="evenodd"/><path fill="#000000" fill-opacity="0.0" d="m763.1102 151.979c0 11.602325 -1.5675049 21.007874 -3.5011597 21.007874l-107.71936 0c-1.9336548 0 -3.5011597 9.405548 -3.5011597 21.007874l0 0c0 -11.602325 -1.5675659 -21.007874 -3.5012207 -21.007874l-109.29956 0l0 0c-1.9336548 0 -3.5011597 -9.405548 -3.5011597 -21.007874z" fill-rule="evenodd"/><path fill="#000000" fill-opacity="0.0" d="m763.1102 151.979c0 11.602325 -1.5675049 21.007874 -3.5011597 21.007874l-107.71936 0c-1.9336548 0 -3.5011597 9.405548 -3.5011597 21.007874l0 0c0 -11.602325 -1.5675659 -21.007874 -3.5012207 -21.007874l-109.29956 0l0 0c-1.9336548 0 -3.5011597 -9.405548 -3.5011597 -21.007874" fill-rule="evenodd"/><path stroke="#000000" stroke-width="1.0" stroke-linejoin="round" stroke-linecap="butt" d="m763.1102 151.979c0 11.602325 -1.5675049 21.007874 -3.5011597 21.007874l-107.71936 0c-1.9336548 0 -3.5011597 9.405548 -3.5011597 21.007874l0 0c0 -11.602325 -1.5675659 -21.007874 -3.5012207 -21.007874l-109.29956 0l0 0c-1.9336548 0 -3.5011597 -9.405548 -3.5011597 -21.007874" fill-rule="evenodd"/><path fill="#000000" fill-opacity="0.0" d="m58.110237 83.490814l231.02362 0l0 48.031494l-231.02362 0z" fill-rule="evenodd"/><path fill="#000000" d="m74.65711 101.74269l-6.265625 0q-0.53125 0 -0.765625 -0.203125q-0.21875 -0.203125 -0.21875 -0.53125q0 -0.3125 0.21875 -0.515625q0.234375 -0.21875 0.765625 -0.21875l6.265625 0q0.53125 0 0.75 0.21875q0.21875 0.203125 0.21875 0.53125q0 0.3125 -0.21875 0.515625q-0.21875 0.203125 -0.75 0.203125zm0 2.765625l-6.265625 0q-0.53125 0 -0.765625 -0.203125q-0.21875 -0.203125 -0.21875 -0.53125q0 -0.328125 0.21875 -0.53125q0.234375 -0.203125 0.765625 -0.203125l6.265625 0q0.53125 0 0.75 0.203125q0.21875 0.203125 0.21875 0.53125q0 0.328125 -0.21875 0.53125q-0.21875 0.203125 -0.75 0.203125zm16.027863 -2.71875q-0.359375 -0.21875 -0.75 -0.328125q-0.390625 -0.109375 -0.828125 -0.109375q-0.84375 0 -1.34375 0.28125q-0.234375 0.109375 -0.234375 0.25q0 0.171875 0.3125 0.328125q0.21875 0.109375 1.015625 0.21875q1.46875 0.203125 2.03125 0.40625q0.75 0.265625 1.15625 0.796875q0.40625 0.515625 0.40625 1.09375q0 0.78125 -0.6875 1.3125q-1.0 0.765625 -2.578125 0.765625q-0.640625 0 -1.1875 -0.109375q-0.53125 -0.109375 -0.984375 -0.328125q-0.109375 0.09375 -0.234375 0.15625q-0.125 0.046875 -0.25 0.046875q-0.34375 0 -0.546875 -0.21875q-0.203125 -0.234375 -0.203125 -0.765625l0 -0.5q0 -0.53125 0.203125 -0.75q0.203125 -0.234375 0.53125 -0.234375q0.265625 0 0.4375 0.15625q0.1875 0.140625 0.296875 0.5q0.328125 0.28125 0.796875 0.4375q0.484375 0.140625 1.09375 0.140625q1.015625 0 1.5625 -0.3125q0.265625 -0.15625 0.265625 -0.328125q0 -0.28125 -0.375 -0.46875q-0.375 -0.1875 -1.5625 -0.3125q-1.765625 -0.1875 -2.375 -0.71875q-0.59375 -0.53125 -0.59375 -1.296875q0 -0.78125 0.671875 -1.296875q0.90625 -0.71875 2.359375 -0.71875q0.515625 0 0.984375 0.09375q0.46875 0.09375 0.890625 0.296875q0.140625 -0.09375 0.25 -0.140625q0.125 -0.0625 0.21875 -0.0625q0.3125 0 0.5 0.234375q0.203125 0.21875 0.203125 0.75l0 0.359375q0 0.46875 -0.109375 0.640625q-0.234375 0.34375 -0.625 0.34375q-0.265625 0 -0.46875 -0.171875q-0.1875 -0.171875 -0.25 -0.4375zm7.7326813 -4.5l0 1.546875l-1.75 0l0 -1.546875l1.75 0zm0.203125 2.78125l0 5.03125l1.765625 0q0.515625 0 0.734375 0.203125q0.234375 0.203125 0.234375 0.53125q0 0.328125 -0.234375 0.53125q-0.21875 0.203125 -0.734375 0.203125l-5.0 0q-0.53125 0 -0.75 -0.203125q-0.21875 -0.203125 -0.21875 -0.53125q0 -0.328125 0.21875 -0.53125q0.21875 -0.203125 0.75 -0.203125l1.765625 0l0 -3.5625l-1.1875 0q-0.515625 0 -0.75 -0.203125q-0.21875 -0.203125 -0.21875 -0.53125q0 -0.328125 0.21875 -0.53125q0.234375 -0.203125 0.75 -0.203125l2.65625 0zm7.2795563 5.03125l2.578125 0q0.015625 -0.40625 0.21875 -0.609375q0.203125 -0.203125 0.5 -0.203125q0.34375 0 0.546875 0.234375q0.203125 0.21875 0.203125 0.75l0 1.296875l-6.390625 0l0 -1.21875l3.859375 -3.8125l-2.234375 0l0 0.140625q0 0.53125 -0.21875 0.75q-0.203125 0.21875 -0.53125 0.21875q-0.328125 0 -0.53125 -0.21875q-0.203125 -0.21875 -0.203125 -0.75l0.015625 -1.609375l6.0625 0l0 1.203125l-3.875 3.828125zm13.263931 -1.03125l-6.015625 0q0.234375 0.5625 0.8125 0.921875q0.578125 0.34375 1.578125 0.34375q0.8125 0 2.171875 -0.34375q0.546875 -0.140625 0.765625 -0.140625q0.296875 0 0.5 0.203125q0.203125 0.203125 0.203125 0.515625q0 0.296875 -0.21875 0.484375q-0.296875 0.265625 -1.40625 0.515625q-1.09375 0.234375 -2.125 0.234375q-1.765625 0 -2.828125 -0.984375q-1.046875 -1.0 -1.046875 -2.453125q0 -1.546875 1.140625 -2.515625q1.140625 -0.96875 2.640625 -0.96875q0.890625 0 1.640625 0.3125q0.75 0.3125 1.109375 0.671875q0.515625 0.53125 0.84375 1.3125q0.234375 0.546875 0.234375 1.265625l0 0.625zm-1.625 -1.46875q-0.328125 -0.625 -0.875 -0.9375q-0.546875 -0.3125 -1.296875 -0.3125q-0.75 0 -1.296875 0.3125q-0.53125 0.3125 -0.875 0.9375l4.34375 0zm10.545174 0.84375q0 0.84375 -0.46874237 1.640625q-0.46875 0.78125 -1.390625 1.25q-0.921875 0.46875 -1.9375 0.46875q-1.0 0 -1.921875 -0.453125q-0.90625 -0.46875 -1.390625 -1.265625q-0.484375 -0.796875 -0.484375 -1.65625q0 -0.875 0.484375 -1.71875q0.5 -0.859375 1.40625 -1.34375q0.90625 -0.484375 1.90625 -0.484375q1.0 0 1.921875 0.5q0.9375 0.484375 1.40625 1.328125q0.46874237 0.84375 0.46874237 1.734375zm-1.4687424 0q0 -0.703125 -0.5 -1.296875q-0.703125 -0.796875 -1.828125 -0.796875q-1.0 0 -1.671875 0.640625q-0.65625 0.625 -0.65625 1.46875q0 0.6875 0.671875 1.28125q0.671875 0.59375 1.65625 0.59375q0.984375 0 1.65625 -0.59375q0.671875 -0.59375 0.671875 -1.296875zm6.4514236 -1.90625l0 3.5625l2.078125 0q0.53125 0 0.75 0.203125q0.234375 0.203125 0.234375 0.53125q0 0.328125 -0.234375 0.53125q-0.21875 0.203125 -0.75 0.203125l-4.421875 0q-0.53125 0 -0.765625 -0.203125q-0.21875 -0.203125 -0.21875 -0.53125q0 -0.328125 0.21875 -0.53125q0.234375 -0.203125 0.765625 -0.203125l0.875 0l0 -3.5625l-0.703125 0q-0.53125 0 -0.765625 -0.203125q-0.21875 -0.203125 -0.21875 -0.53125q0 -0.328125 0.21875 -0.53125q0.234375 -0.203125 0.765625 -0.203125l0.703125 0l0 -0.5625q0 -0.953125 0.71875 -1.578125q0.71875 -0.640625 2.078125 -0.640625q0.609375 0 1.40625 0.109375q0.796875 0.109375 1.015625 0.3125q0.234375 0.203125 0.234375 0.515625q0 0.328125 -0.203125 0.546875q-0.1875 0.21875 -0.484375 0.21875q-0.140625 0 -0.40625 -0.0625q-0.90625 -0.171875 -1.609375 -0.171875q-0.734375 0 -1.015625 0.21875q-0.265625 0.21875 -0.265625 0.53125l0 0.5625l2.25 0q0.53125 0 0.75 0.203125q0.234375 0.203125 0.234375 0.53125q0 0.328125 -0.234375 0.53125q-0.21875 0.203125 -0.75 0.203125l-2.25 0zm8.279556 1.46875q0 -1.25 0.40625 -2.53125q0.3125 -0.953125 0.953125 -2.109375q0.46875 -0.828125 0.6875 -1.015625q0.21875 -0.1875 0.5 -0.1875q0.3125 0 0.515625 0.21875q0.21875 0.203125 0.21875 0.5q0 0.21875 -0.171875 0.5q-0.765625 1.265625 -1.125 2.375q-0.34375 1.109375 -0.34375 2.25q0 1.140625 0.34375 2.25q0.359375 1.109375 1.125 2.375q0.171875 0.28125 0.171875 0.5q0 0.296875 -0.21875 0.515625q-0.203125 0.21875 -0.515625 0.21875q-0.265625 0 -0.46875 -0.171875q-0.28125 -0.25 -0.75 -1.125q-0.6875 -1.265625 -0.9375 -2.09375q-0.390625 -1.265625 -0.390625 -2.46875zm7.0451813 -2.9375l0 0.421875q0.359375 -0.359375 0.640625 -0.484375q0.296875 -0.140625 0.6875 -0.140625q0.3125 0 0.625 0.15625q0.328125 0.15625 0.625 0.484375q0.375 -0.328125 0.765625 -0.46875q0.390625 -0.15625 0.796875 -0.15625q0.8125 0 1.328125 0.4375q0.671875 0.5625 0.671875 1.5l0 3.28125q0.453125 0 0.671875 0.21875q0.234375 0.203125 0.234375 0.515625q0 0.328125 -0.234375 0.53125q-0.21875 0.203125 -0.75 0.203125l-1.390625 0l0 -4.625q0 -0.34375 -0.125 -0.46875q-0.109375 -0.125 -0.359375 -0.125q-0.25 0 -0.453125 0.125q-0.265625 0.171875 -0.65625 0.671875l0 2.953125q0.46875 0 0.6875 0.21875q0.21875 0.203125 0.21875 0.515625q0 0.328125 -0.21875 0.53125q-0.21875 0.203125 -0.75 0.203125l-1.390625 0l0 -4.625q0 -0.328125 -0.125 -0.453125q-0.125 -0.140625 -0.390625 -0.140625q-0.25 0 -0.5 0.15625q-0.25 0.15625 -0.609375 0.640625l0 2.953125q0.46875 0 0.6875 0.21875q0.234375 0.203125 0.234375 0.515625q0 0.328125 -0.234375 0.53125q-0.21875 0.203125 -0.75 0.203125l-1.328125 0q-0.53125 0 -0.75 -0.203125q-0.234375 -0.203125 -0.234375 -0.53125q0 -0.328125 0.234375 -0.53125q0.21875 -0.203125 0.6875 -0.203125l0 -3.5625q-0.46875 0 -0.6875 -0.203125q-0.234375 -0.21875 -0.234375 -0.53125q0 -0.328125 0.234375 -0.53125q0.21875 -0.203125 0.75 -0.203125l1.390625 0zm14.748306 4.0l-6.015625 0q0.234375 0.5625 0.8125 0.921875q0.578125 0.34375 1.578125 0.34375q0.8125 0 2.171875 -0.34375q0.546875 -0.140625 0.765625 -0.140625q0.296875 0 0.5 0.203125q0.203125 0.203125 0.203125 0.515625q0 0.296875 -0.21875 0.484375q-0.296875 0.265625 -1.40625 0.515625q-1.09375 0.234375 -2.125 0.234375q-1.765625 0 -2.828125 -0.984375q-1.046875 -1.0 -1.046875 -2.453125q0 -1.546875 1.140625 -2.515625q1.140625 -0.96875 2.640625 -0.96875q0.890625 0 1.640625 0.3125q0.75 0.3125 1.109375 0.671875q0.515625 0.53125 0.84375 1.3125q0.234375 0.546875 0.234375 1.265625l0 0.625zm-1.625 -1.46875q-0.328125 -0.625 -0.875 -0.9375q-0.546875 -0.3125 -1.296875 -0.3125q-0.75 0 -1.296875 0.3125q-0.53125 0.3125 -0.875 0.9375l4.34375 0zm8.326431 -0.8125q-0.359375 -0.21875 -0.75 -0.328125q-0.390625 -0.109375 -0.828125 -0.109375q-0.84375 0 -1.34375 0.28125q-0.234375 0.109375 -0.234375 0.25q0 0.171875 0.3125 0.328125q0.21875 0.109375 1.015625 0.21875q1.46875 0.203125 2.03125 0.40625q0.75 0.265625 1.15625 0.796875q0.40625 0.515625 0.40625 1.09375q0 0.78125 -0.6875 1.3125q-1.0 0.765625 -2.578125 0.765625q-0.640625 0 -1.1875 -0.109375q-0.53125 -0.109375 -0.984375 -0.328125q-0.109375 0.09375 -0.234375 0.15625q-0.125 0.046875 -0.25 0.046875q-0.34375 0 -0.546875 -0.21875q-0.203125 -0.234375 -0.203125 -0.765625l0 -0.5q0 -0.53125 0.203125 -0.75q0.203125 -0.234375 0.53125 -0.234375q0.265625 0 0.4375 0.15625q0.1875 0.140625 0.296875 0.5q0.328125 0.28125 0.796875 0.4375q0.484375 0.140625 1.09375 0.140625q1.015625 0 1.5625 -0.3125q0.265625 -0.15625 0.265625 -0.328125q0 -0.28125 -0.375 -0.46875q-0.375 -0.1875 -1.5625 -0.3125q-1.765625 -0.1875 -2.375 -0.71875q-0.59375 -0.53125 -0.59375 -1.296875q0 -0.78125 0.671875 -1.296875q0.90625 -0.71875 2.359375 -0.71875q0.515625 0 0.984375 0.09375q0.46875 0.09375 0.890625 0.296875q0.140625 -0.09375 0.25 -0.140625q0.125 -0.0625 0.21875 -0.0625q0.3125 0 0.5 0.234375q0.203125 0.21875 0.203125 0.75l0 0.359375q0 0.46875 -0.109375 0.640625q-0.234375 0.34375 -0.625 0.34375q-0.265625 0 -0.46875 -0.171875q-0.1875 -0.171875 -0.25 -0.4375zm8.795181 0q-0.359375 -0.21875 -0.75 -0.328125q-0.390625 -0.109375 -0.828125 -0.109375q-0.84375 0 -1.34375 0.28125q-0.234375 0.109375 -0.234375 0.25q0 0.171875 0.3125 0.328125q0.21875 0.109375 1.015625 0.21875q1.46875 0.203125 2.03125 0.40625q0.75 0.265625 1.15625 0.796875q0.40625 0.515625 0.40625 1.09375q0 0.78125 -0.6875 1.3125q-1.0 0.765625 -2.578125 0.765625q-0.640625 0 -1.1875 -0.109375q-0.53125 -0.109375 -0.984375 -0.328125q-0.109375 0.09375 -0.234375 0.15625q-0.125 0.046875 -0.25 0.046875q-0.34375 0 -0.546875 -0.21875q-0.203125 -0.234375 -0.203125 -0.765625l0 -0.5q0 -0.53125 0.203125 -0.75q0.203125 -0.234375 0.53125 -0.234375q0.265625 0 0.4375 0.15625q0.1875 0.140625 0.296875 0.5q0.328125 0.28125 0.796875 0.4375q0.484375 0.140625 1.09375 0.140625q1.015625 0 1.5625 -0.3125q0.265625 -0.15625 0.265625 -0.328125q0 -0.28125 -0.375 -0.46875q-0.375 -0.1875 -1.5625 -0.3125q-1.765625 -0.1875 -2.375 -0.71875q-0.59375 -0.53125 -0.59375 -1.296875q0 -0.78125 0.671875 -1.296875q0.90625 -0.71875 2.359375 -0.71875q0.515625 0 0.984375 0.09375q0.46875 0.09375 0.890625 0.296875q0.140625 -0.09375 0.25 -0.140625q0.125 -0.0625 0.21875 -0.0625q0.3125 0 0.5 0.234375q0.203125 0.21875 0.203125 0.75l0 0.359375q0 0.46875 -0.109375 0.640625q-0.234375 0.34375 -0.625 0.34375q-0.265625 0 -0.46875 -0.171875q-0.1875 -0.171875 -0.25 -0.4375zm8.529556 4.78125l0 -0.34375q-0.546875 0.296875 -1.21875 0.4375q-0.671875 0.15625 -1.203125 0.15625q-1.1875 0 -1.921875 -0.625q-0.734375 -0.640625 -0.734375 -1.390625q0 -0.921875 0.9375 -1.703125q0.9375 -0.796875 2.59375 -0.796875q0.671875 0 1.546875 0.140625l0 -0.359375q0 -0.328125 -0.28125 -0.53125q-0.28125 -0.203125 -1.078125 -0.203125q-0.65625 0 -1.6875 0.25q-0.390625 0.09375 -0.609375 0.09375q-0.28125 0 -0.5 -0.203125q-0.203125 -0.21875 -0.203125 -0.546875q0 -0.1875 0.078125 -0.3125q0.078125 -0.140625 0.203125 -0.21875q0.125 -0.09375 0.53125 -0.203125q0.546875 -0.15625 1.109375 -0.234375q0.5625 -0.09375 1.03125 -0.09375q1.359375 0 2.109375 0.59375q0.765625 0.578125 0.765625 1.609375l0 3.015625l0.25 0q0.53125 0 0.75 0.203125q0.234375 0.203125 0.234375 0.53125q0 0.328125 -0.234375 0.53125q-0.21875 0.203125 -0.75 0.203125l-1.71875 0zm0 -2.625q-0.875 -0.171875 -1.625 -0.171875q-0.890625 0 -1.53125 0.4375q-0.40625 0.28125 -0.40625 0.5625q0 0.203125 0.1875 0.34375q0.359375 0.234375 0.984375 0.234375q0.53125 0 1.203125 -0.203125q0.671875 -0.21875 1.1875 -0.578125l0 -0.625zm9.092056 -3.4375l0 -0.4375l1.71875 0q0.53125 0 0.75 0.203125q0.21875 0.203125 0.21875 0.53125q0 0.328125 -0.21875 0.53125q-0.21875 0.203125 -0.75 0.203125l-0.25 0l0 5.34375q0 0.765625 -0.328125 1.34375q-0.328125 0.578125 -1.0 0.984375q-0.671875 0.421875 -1.515625 0.421875l-1.65625 0q-0.53125 0 -0.765625 -0.203125q-0.21875 -0.203125 -0.21875 -0.53125q0 -0.328125 0.21875 -0.53125q0.234375 -0.203125 0.765625 -0.203125l1.609375 0q0.671875 0 1.046875 -0.375q0.375 -0.359375 0.375 -0.90625l0 -0.71875q-0.484375 0.3125 -1.0 0.46875q-0.5 0.15625 -1.03125 0.15625q-1.5 0 -2.515625 -1.0q-1.0 -1.0 -1.0 -2.453125q0 -1.484375 1.0 -2.484375q1.015625 -1.0 2.515625 -1.0q0.5625 0 1.0625 0.171875q0.5 0.15625 0.96875 0.484375zm-0.015625 2.8125q0 -0.8125 -0.59375 -1.40625q-0.59375 -0.59375 -1.4375 -0.59375q-0.828125 0 -1.4375 0.59375q-0.59375 0.59375 -0.59375 1.40625q0 0.8125 0.59375 1.40625q0.609375 0.59375 1.4375 0.59375q0.84375 0 1.4375 -0.59375q0.59375 -0.59375 0.59375 -1.40625zm10.873306 0.75l-6.015625 0q0.234375 0.5625 0.8125 0.921875q0.578125 0.34375 1.578125 0.34375q0.8125 0 2.171875 -0.34375q0.546875 -0.140625 0.765625 -0.140625q0.296875 0 0.5 0.203125q0.203125 0.203125 0.203125 0.515625q0 0.296875 -0.21875 0.484375q-0.296875 0.265625 -1.40625 0.515625q-1.09375 0.234375 -2.125 0.234375q-1.765625 0 -2.828125 -0.984375q-1.046875 -1.0 -1.046875 -2.453125q0 -1.546875 1.140625 -2.515625q1.140625 -0.96875 2.640625 -0.96875q0.890625 0 1.640625 0.3125q0.75 0.3125 1.109375 0.671875q0.515625 0.53125 0.84375 1.3125q0.234375 0.546875 0.234375 1.265625l0 0.625zm-1.625 -1.46875q-0.328125 -0.625 -0.875 -0.9375q-0.546875 -0.3125 -1.296875 -0.3125q-0.75 0 -1.296875 0.3125q-0.53125 0.3125 -0.875 0.9375l4.34375 0zm9.810806 0.46875l-6.125 0l0 -1.328125l6.125 0l0 1.328125zm5.3576813 -1.53125l0 2.9375q0 0.46875 0.203125 0.625q0.296875 0.234375 1.0625 0.234375q1.125 0 2.078125 -0.46875q0.375 -0.1875 0.578125 -0.1875q0.28125 0 0.484375 0.21875q0.21875 0.203125 0.21875 0.515625q0 0.28125 -0.21875 0.484375q-0.359375 0.34375 -1.390625 0.625q-1.03125 0.28125 -1.75 0.28125q-1.359375 0 -2.046875 -0.578125q-0.6875 -0.59375 -0.6875 -1.453125l0 -3.234375l-0.515625 0q-0.53125 0 -0.765625 -0.203125q-0.21875 -0.203125 -0.21875 -0.53125q0 -0.328125 0.21875 -0.53125q0.234375 -0.203125 0.765625 -0.203125l0.515625 0l0 -1.328125q0 -0.515625 0.203125 -0.734375q0.21875 -0.234375 0.546875 -0.234375q0.3125 0 0.515625 0.234375q0.203125 0.21875 0.203125 0.734375l0 1.328125l2.71875 0q0.53125 0 0.75 0.203125q0.234375 0.203125 0.234375 0.53125q0 0.328125 -0.234375 0.53125q-0.21875 0.203125 -0.75 0.203125l-2.71875 0zm8.342056 4.984375l-2.546875 -4.984375q-0.34375 -0.046875 -0.53125 -0.234375q-0.1875 -0.203125 -0.1875 -0.5q0 -0.328125 0.21875 -0.53125q0.234375 -0.203125 0.75 -0.203125l1.34375 0q0.53125 0 0.75 0.203125q0.234375 0.203125 0.234375 0.53125q0 0.328125 -0.234375 0.53125q-0.21875 0.203125 -0.703125 0.203125l1.734375 3.375l1.71875 -3.375q-0.484375 0 -0.703125 -0.203125q-0.21875 -0.203125 -0.21875 -0.53125q0 -0.328125 0.21875 -0.53125q0.21875 -0.203125 0.75 -0.203125l1.390625 0q0.515625 0 0.734375 0.203125q0.234375 0.203125 0.234375 0.53125q0 0.296875 -0.203125 0.5q-0.1875 0.203125 -0.5625 0.234375l-3.359375 6.625q0.546875 0 0.71875 0.109375q0.34375 0.21875 0.34375 0.625q0 0.328125 -0.234375 0.53125q-0.21875 0.203125 -0.75 0.203125l-3.203125 0q-0.515625 0 -0.75 -0.203125q-0.21875 -0.203125 -0.21875 -0.53125q0 -0.328125 0.21875 -0.53125q0.234375 -0.203125 0.75 -0.203125l1.46875 0l0.828125 -1.640625zm7.7951813 -0.765625l0 2.40625l0.875 0q0.53125 0 0.75 0.203125q0.234375 0.203125 0.234375 0.53125q0 0.328125 -0.234375 0.53125q-0.21875 0.203125 -0.75 0.203125l-2.59375 0q-0.53125 0 -0.765625 -0.203125q-0.21875 -0.203125 -0.21875 -0.53125q0 -0.328125 0.234375 -0.53125q0.234375 -0.203125 0.75 -0.203125l0.25 0l0 -6.625l-0.25 0q-0.53125 0 -0.765625 -0.203125q-0.21875 -0.203125 -0.21875 -0.53125q0 -0.328125 0.21875 -0.53125q0.234375 -0.203125 0.765625 -0.203125l1.71875 0l0 0.5q0.515625 -0.34375 1.0625 -0.515625q0.546875 -0.171875 1.125 -0.171875q1.515625 0 2.5625 1.015625q1.0625 1.015625 1.0625 2.34375q0 1.453125 -1.25 2.390625q-1.046875 0.78125 -2.359375 0.78125q-0.5625 0 -1.109375 -0.15625q-0.546875 -0.171875 -1.09375 -0.5zm4.34375 -2.515625q0 -0.3125 -0.25 -0.78125q-0.234375 -0.484375 -0.734375 -0.796875q-0.5 -0.3125 -1.1875 -0.3125q-1.09375 0 -1.734375 0.8125q-0.4375 0.578125 -0.4375 1.09375q0 0.578125 0.625 1.140625q0.625 0.546875 1.546875 0.546875q0.9375 0 1.546875 -0.546875q0.625 -0.546875 0.625 -1.15625zm9.951431 0.828125l-6.015625 0q0.234375 0.5625 0.8125 0.921875q0.578125 0.34375 1.578125 0.34375q0.8125 0 2.171875 -0.34375q0.546875 -0.140625 0.765625 -0.140625q0.296875 0 0.5 0.203125q0.203125 0.203125 0.203125 0.515625q0 0.296875 -0.21875 0.484375q-0.296875 0.265625 -1.40625 0.515625q-1.09375 0.234375 -2.125 0.234375q-1.765625 0 -2.828125 -0.984375q-1.046875 -1.0 -1.046875 -2.453125q0 -1.546875 1.140625 -2.515625q1.140625 -0.96875 2.640625 -0.96875q0.890625 0 1.640625 0.3125q0.75 0.3125 1.109375 0.671875q0.515625 0.53125 0.84375 1.3125q0.234375 0.546875 0.234375 1.265625l0 0.625zm-1.625 -1.46875q-0.328125 -0.625 -0.875 -0.9375q-0.546875 -0.3125 -1.296875 -0.3125q-0.75 0 -1.296875 0.3125q-0.53125 0.3125 -0.875 0.9375l4.34375 0zm7.3733215 0.40625q0 1.25 -0.421875 2.546875q-0.3125 0.9375 -0.95314026 2.09375q-0.46875 0.828125 -0.6875 1.015625q-0.21875 0.203125 -0.5 0.203125q-0.3125 0 -0.53125 -0.21875q-0.203125 -0.21875 -0.203125 -0.515625q0 -0.21875 0.171875 -0.5q0.765625 -1.265625 1.125 -2.375q0.359375 -1.109375 0.359375 -2.25q0 -1.140625 -0.359375 -2.25q-0.359375 -1.109375 -1.125 -2.375q-0.171875 -0.28125 -0.171875 -0.5q0 -0.296875 0.203125 -0.5q0.21875 -0.21875 0.53125 -0.21875q0.265625 0 0.46875 0.171875q0.296875 0.234375 0.765625 1.125q0.67189026 1.265625 0.92189026 2.078125q0.40625 1.265625 0.40625 2.46875z" fill-rule="nonzero"/><path fill="#000000" d="m87.440056 121.133316l0 2.453125q0 0.53125 -0.203125 0.765625q-0.1875 0.21875 -0.515625 0.21875q-0.328125 0 -0.53125 -0.21875q-0.203125 -0.234375 -0.203125 -0.765625l0 -2.453125l-2.109375 0q-0.53125 0 -0.75 -0.203125q-0.21875 -0.203125 -0.21875 -0.53125q0 -0.328125 0.21875 -0.53125q0.21875 -0.203125 0.75 -0.203125l2.109375 0l0 -2.4375q0 -0.53125 0.203125 -0.75q0.203125 -0.234375 0.53125 -0.234375q0.328125 0 0.53125 0.234375q0.203125 0.21875 0.203125 0.75l-0.015625 2.4375l2.109375 0q0.515625 0 0.734375 0.203125q0.234375 0.203125 0.234375 0.53125q0 0.328125 -0.234375 0.53125q-0.21875 0.203125 -0.734375 0.203125l-2.109375 0z" fill-rule="nonzero"/><path fill="#000000" d="m120.23524 115.289566l0 7.8125l1.765625 0q0.53125 0 0.75 0.203125q0.234375 0.203125 0.234375 0.53125q0 0.328125 -0.234375 0.53125q-0.21875 0.203125 -0.75 0.203125l-4.984375 0q-0.53125 0 -0.765625 -0.203125q-0.21875 -0.203125 -0.21875 -0.53125q0 -0.328125 0.21875 -0.53125q0.234375 -0.203125 0.765625 -0.203125l1.765625 0l0 -6.34375l-1.1875 0q-0.53125 0 -0.765625 -0.203125q-0.21875 -0.203125 -0.21875 -0.53125q0 -0.328125 0.21875 -0.53125q0.234375 -0.203125 0.765625 -0.203125l2.640625 0zm11.748299 6.78125l-6.0156174 0q0.234375 0.5625 0.8125 0.921875q0.578125 0.34375 1.5781174 0.34375q0.8125 0 2.171875 -0.34375q0.546875 -0.140625 0.765625 -0.140625q0.296875 0 0.5 0.203125q0.203125 0.203125 0.203125 0.515625q0 0.296875 -0.21875 0.484375q-0.296875 0.265625 -1.40625 0.515625q-1.09375 0.234375 -2.125 0.234375q-1.7656174 0 -2.8281174 -0.984375q-1.046875 -1.0 -1.046875 -2.453125q0 -1.546875 1.140625 -2.515625q1.140625 -0.96875 2.6406174 -0.96875q0.890625 0 1.640625 0.3125q0.75 0.3125 1.109375 0.671875q0.515625 0.53125 0.84375 1.3125q0.234375 0.546875 0.234375 1.265625l0 0.625zm-1.625 -1.46875q-0.328125 -0.625 -0.875 -0.9375q-0.546875 -0.3125 -1.296875 -0.3125q-0.7499924 0 -1.2968674 0.3125q-0.53125 0.3125 -0.875 0.9375l4.3437424 0zm5.2483063 -2.53125l0 0.5q0.40625 -0.34375 0.890625 -0.515625q0.484375 -0.171875 1.046875 -0.171875q1.296875 0 2.0625 0.8125q0.59375 0.640625 0.59375 1.6875l0 2.71875q0.46875 0 0.6875 0.203125q0.234375 0.203125 0.234375 0.53125q0 0.328125 -0.234375 0.53125q-0.21875 0.203125 -0.75 0.203125l-1.328125 0q-0.53125 0 -0.765625 -0.203125q-0.21875 -0.203125 -0.21875 -0.53125q0 -0.328125 0.21875 -0.53125q0.234375 -0.203125 0.703125 -0.203125l0 -2.765625q0 -0.484375 -0.265625 -0.703125q-0.328125 -0.28125 -1.015625 -0.28125q-0.5 0 -0.890625 0.203125q-0.375 0.1875 -0.96875 0.828125l0 2.71875q0.578125 0 0.734375 0.109375q0.359375 0.21875 0.359375 0.625q0 0.328125 -0.234375 0.53125q-0.21875 0.203125 -0.75 0.203125l-1.671875 0q-0.53125 0 -0.765625 -0.203125q-0.21875 -0.203125 -0.21875 -0.53125q0 -0.40625 0.34375 -0.625q0.171875 -0.109375 0.75 -0.109375l0 -3.5625q-0.46875 0 -0.703125 -0.203125q-0.21875 -0.21875 -0.21875 -0.53125q0 -0.328125 0.21875 -0.53125q0.234375 -0.203125 0.765625 -0.203125l1.390625 0zm9.763931 2.9375q0 -1.25 0.40625 -2.53125q0.3125 -0.953125 0.953125 -2.109375q0.46875 -0.828125 0.6875 -1.015625q0.21875 -0.1875 0.5 -0.1875q0.3125 0 0.515625 0.21875q0.21875 0.203125 0.21875 0.5q0 0.21875 -0.171875 0.5q-0.765625 1.265625 -1.125 2.375q-0.34375 1.109375 -0.34375 2.25q0 1.140625 0.34375 2.25q0.359375 1.109375 1.125 2.375q0.171875 0.28125 0.171875 0.5q0 0.296875 -0.21875 0.515625q-0.203125 0.21875 -0.515625 0.21875q-0.265625 0 -0.46875 -0.171875q-0.28125 -0.25 -0.75 -1.125q-0.6875 -1.265625 -0.9375 -2.09375q-0.390625 -1.265625 -0.390625 -2.46875zm7.0451813 -2.9375l0 0.421875q0.359375 -0.359375 0.640625 -0.484375q0.296875 -0.140625 0.6875 -0.140625q0.3125 0 0.625 0.15625q0.328125 0.15625 0.625 0.484375q0.375 -0.328125 0.765625 -0.46875q0.390625 -0.15625 0.796875 -0.15625q0.8125 0 1.328125 0.4375q0.671875 0.5625 0.671875 1.5l0 3.28125q0.453125 0 0.671875 0.21875q0.234375 0.203125 0.234375 0.515625q0 0.328125 -0.234375 0.53125q-0.21875 0.203125 -0.75 0.203125l-1.390625 0l0 -4.625q0 -0.34375 -0.125 -0.46875q-0.109375 -0.125 -0.359375 -0.125q-0.25 0 -0.453125 0.125q-0.265625 0.171875 -0.65625 0.671875l0 2.953125q0.46875 0 0.6875 0.21875q0.21875 0.203125 0.21875 0.515625q0 0.328125 -0.21875 0.53125q-0.21875 0.203125 -0.75 0.203125l-1.390625 0l0 -4.625q0 -0.328125 -0.125 -0.453125q-0.125 -0.140625 -0.390625 -0.140625q-0.25 0 -0.5 0.15625q-0.25 0.15625 -0.609375 0.640625l0 2.953125q0.46875 0 0.6875 0.21875q0.234375 0.203125 0.234375 0.515625q0 0.328125 -0.234375 0.53125q-0.21875 0.203125 -0.75 0.203125l-1.328125 0q-0.53125 0 -0.75 -0.203125q-0.234375 -0.203125 -0.234375 -0.53125q0 -0.328125 0.234375 -0.53125q0.21875 -0.203125 0.6875 -0.203125l0 -3.5625q-0.46875 0 -0.6875 -0.203125q-0.234375 -0.21875 -0.234375 -0.53125q0 -0.328125 0.234375 -0.53125q0.21875 -0.203125 0.75 -0.203125l1.390625 0zm14.748306 4.0l-6.015625 0q0.234375 0.5625 0.8125 0.921875q0.578125 0.34375 1.578125 0.34375q0.8125 0 2.171875 -0.34375q0.546875 -0.140625 0.765625 -0.140625q0.296875 0 0.5 0.203125q0.203125 0.203125 0.203125 0.515625q0 0.296875 -0.21875 0.484375q-0.296875 0.265625 -1.40625 0.515625q-1.09375 0.234375 -2.125 0.234375q-1.765625 0 -2.828125 -0.984375q-1.046875 -1.0 -1.046875 -2.453125q0 -1.546875 1.140625 -2.515625q1.140625 -0.96875 2.640625 -0.96875q0.890625 0 1.640625 0.3125q0.75 0.3125 1.109375 0.671875q0.515625 0.53125 0.84375 1.3125q0.234375 0.546875 0.234375 1.265625l0 0.625zm-1.625 -1.46875q-0.328125 -0.625 -0.875 -0.9375q-0.546875 -0.3125 -1.296875 -0.3125q-0.75 0 -1.296875 0.3125q-0.53125 0.3125 -0.875 0.9375l4.34375 0zm8.326431 -0.8125q-0.359375 -0.21875 -0.75 -0.328125q-0.390625 -0.109375 -0.828125 -0.109375q-0.84375 0 -1.34375 0.28125q-0.234375 0.109375 -0.234375 0.25q0 0.171875 0.3125 0.328125q0.21875 0.109375 1.015625 0.21875q1.46875 0.203125 2.03125 0.40625q0.75 0.265625 1.15625 0.796875q0.40625 0.515625 0.40625 1.09375q0 0.78125 -0.6875 1.3125q-1.0 0.765625 -2.578125 0.765625q-0.640625 0 -1.1875 -0.109375q-0.53125 -0.109375 -0.984375 -0.328125q-0.109375 0.09375 -0.234375 0.15625q-0.125 0.046875 -0.25 0.046875q-0.34375 0 -0.546875 -0.21875q-0.203125 -0.234375 -0.203125 -0.765625l0 -0.5q0 -0.53125 0.203125 -0.75q0.203125 -0.234375 0.53125 -0.234375q0.265625 0 0.4375 0.15625q0.1875 0.140625 0.296875 0.5q0.328125 0.28125 0.796875 0.4375q0.484375 0.140625 1.09375 0.140625q1.015625 0 1.5625 -0.3125q0.265625 -0.15625 0.265625 -0.328125q0 -0.28125 -0.375 -0.46875q-0.375 -0.1875 -1.5625 -0.3125q-1.765625 -0.1875 -2.375 -0.71875q-0.59375 -0.53125 -0.59375 -1.296875q0 -0.78125 0.671875 -1.296875q0.90625 -0.71875 2.359375 -0.71875q0.515625 0 0.984375 0.09375q0.46875 0.09375 0.890625 0.296875q0.140625 -0.09375 0.25 -0.140625q0.125 -0.0625 0.21875 -0.0625q0.3125 0 0.5 0.234375q0.203125 0.21875 0.203125 0.75l0 0.359375q0 0.46875 -0.109375 0.640625q-0.234375 0.34375 -0.625 0.34375q-0.265625 0 -0.46875 -0.171875q-0.1875 -0.171875 -0.25 -0.4375zm8.795181 0q-0.359375 -0.21875 -0.75 -0.328125q-0.390625 -0.109375 -0.828125 -0.109375q-0.84375 0 -1.34375 0.28125q-0.234375 0.109375 -0.234375 0.25q0 0.171875 0.3125 0.328125q0.21875 0.109375 1.015625 0.21875q1.46875 0.203125 2.03125 0.40625q0.75 0.265625 1.15625 0.796875q0.40625 0.515625 0.40625 1.09375q0 0.78125 -0.6875 1.3125q-1.0 0.765625 -2.578125 0.765625q-0.640625 0 -1.1875 -0.109375q-0.53125 -0.109375 -0.984375 -0.328125q-0.109375 0.09375 -0.234375 0.15625q-0.125 0.046875 -0.25 0.046875q-0.34375 0 -0.546875 -0.21875q-0.203125 -0.234375 -0.203125 -0.765625l0 -0.5q0 -0.53125 0.203125 -0.75q0.203125 -0.234375 0.53125 -0.234375q0.265625 0 0.4375 0.15625q0.1875 0.140625 0.296875 0.5q0.328125 0.28125 0.796875 0.4375q0.484375 0.140625 1.09375 0.140625q1.015625 0 1.5625 -0.3125q0.265625 -0.15625 0.265625 -0.328125q0 -0.28125 -0.375 -0.46875q-0.375 -0.1875 -1.5625 -0.3125q-1.765625 -0.1875 -2.375 -0.71875q-0.59375 -0.53125 -0.59375 -1.296875q0 -0.78125 0.671875 -1.296875q0.90625 -0.71875 2.359375 -0.71875q0.515625 0 0.984375 0.09375q0.46875 0.09375 0.890625 0.296875q0.140625 -0.09375 0.25 -0.140625q0.125 -0.0625 0.21875 -0.0625q0.3125 0 0.5 0.234375q0.203125 0.21875 0.203125 0.75l0 0.359375q0 0.46875 -0.109375 0.640625q-0.234375 0.34375 -0.625 0.34375q-0.265625 0 -0.46875 -0.171875q-0.1875 -0.171875 -0.25 -0.4375zm8.529556 4.78125l0 -0.34375q-0.546875 0.296875 -1.21875 0.4375q-0.671875 0.15625 -1.203125 0.15625q-1.1875 0 -1.921875 -0.625q-0.734375 -0.640625 -0.734375 -1.390625q0 -0.921875 0.9375 -1.703125q0.9375 -0.796875 2.59375 -0.796875q0.671875 0 1.546875 0.140625l0 -0.359375q0 -0.328125 -0.28125 -0.53125q-0.28125 -0.203125 -1.078125 -0.203125q-0.65625 0 -1.6875 0.25q-0.390625 0.09375 -0.609375 0.09375q-0.28125 0 -0.5 -0.203125q-0.203125 -0.21875 -0.203125 -0.546875q0 -0.1875 0.078125 -0.3125q0.078125 -0.140625 0.203125 -0.21875q0.125 -0.09375 0.53125 -0.203125q0.546875 -0.15625 1.109375 -0.234375q0.5625 -0.09375 1.03125 -0.09375q1.359375 0 2.109375 0.59375q0.765625 0.578125 0.765625 1.609375l0 3.015625l0.25 0q0.53125 0 0.75 0.203125q0.234375 0.203125 0.234375 0.53125q0 0.328125 -0.234375 0.53125q-0.21875 0.203125 -0.75 0.203125l-1.71875 0zm0 -2.625q-0.875 -0.171875 -1.625 -0.171875q-0.890625 0 -1.53125 0.4375q-0.40625 0.28125 -0.40625 0.5625q0 0.203125 0.1875 0.34375q0.359375 0.234375 0.984375 0.234375q0.53125 0 1.203125 -0.203125q0.671875 -0.21875 1.1875 -0.578125l0 -0.625zm9.092056 -3.4375l0 -0.4375l1.71875 0q0.53125 0 0.75 0.203125q0.21875 0.203125 0.21875 0.53125q0 0.328125 -0.21875 0.53125q-0.21875 0.203125 -0.75 0.203125l-0.25 0l0 5.34375q0 0.765625 -0.328125 1.34375q-0.328125 0.578125 -1.0 0.984375q-0.671875 0.421875 -1.515625 0.421875l-1.65625 0q-0.53125 0 -0.765625 -0.203125q-0.21875 -0.203125 -0.21875 -0.53125q0 -0.328125 0.21875 -0.53125q0.234375 -0.203125 0.765625 -0.203125l1.609375 0q0.671875 0 1.046875 -0.375q0.375 -0.359375 0.375 -0.90625l0 -0.71875q-0.484375 0.3125 -1.0 0.46875q-0.5 0.15625 -1.03125 0.15625q-1.5 0 -2.515625 -1.0q-1.0 -1.0 -1.0 -2.453125q0 -1.484375 1.0 -2.484375q1.015625 -1.0 2.515625 -1.0q0.5625 0 1.0625 0.171875q0.5 0.15625 0.96875 0.484375zm-0.015625 2.8125q0 -0.8125 -0.59375 -1.40625q-0.59375 -0.59375 -1.4375 -0.59375q-0.828125 0 -1.4375 0.59375q-0.59375 0.59375 -0.59375 1.40625q0 0.8125 0.59375 1.40625q0.609375 0.59375 1.4375 0.59375q0.84375 0 1.4375 -0.59375q0.59375 -0.59375 0.59375 -1.40625zm10.873306 0.75l-6.015625 0q0.234375 0.5625 0.8125 0.921875q0.578125 0.34375 1.578125 0.34375q0.8125 0 2.171875 -0.34375q0.546875 -0.140625 0.765625 -0.140625q0.296875 0 0.5 0.203125q0.203125 0.203125 0.203125 0.515625q0 0.296875 -0.21875 0.484375q-0.296875 0.265625 -1.40625 0.515625q-1.09375 0.234375 -2.125 0.234375q-1.765625 0 -2.828125 -0.984375q-1.046875 -1.0 -1.046875 -2.453125q0 -1.546875 1.140625 -2.515625q1.140625 -0.96875 2.640625 -0.96875q0.890625 0 1.640625 0.3125q0.75 0.3125 1.109375 0.671875q0.515625 0.53125 0.84375 1.3125q0.234375 0.546875 0.234375 1.265625l0 0.625zm-1.625 -1.46875q-0.328125 -0.625 -0.875 -0.9375q-0.546875 -0.3125 -1.296875 -0.3125q-0.75 0 -1.296875 0.3125q-0.53125 0.3125 -0.875 0.9375l4.34375 0zm7.3733063 0.40625q0 1.25 -0.421875 2.546875q-0.3125 0.9375 -0.953125 2.09375q-0.46875 0.828125 -0.6875 1.015625q-0.21875 0.203125 -0.5 0.203125q-0.3125 0 -0.53125 -0.21875q-0.203125 -0.21875 -0.203125 -0.515625q0 -0.21875 0.171875 -0.5q0.765625 -1.265625 1.125 -2.375q0.359375 -1.109375 0.359375 -2.25q0 -1.140625 -0.359375 -2.25q-0.359375 -1.109375 -1.125 -2.375q-0.171875 -0.28125 -0.171875 -0.5q0 -0.296875 0.203125 -0.5q0.21875 -0.21875 0.53125 -0.21875q0.265625 0 0.46875 0.171875q0.296875 0.234375 0.765625 1.125q0.671875 1.265625 0.921875 2.078125q0.40625 1.265625 0.40625 2.46875z" fill-rule="nonzero"/></g></svg>