<svg version="1.1" xmlns="http://www.w3.org/2000/svg" xmlns:xlink="http://www.w3.org/1999/xlink" x="0px" y="0px" viewBox="0 0 1000 1000" enable-background="new 0 0 1000 1000" xml:space="preserve">
  <metadata> Svg Vector Icons : http://www.onlinewebfonts.com/icon </metadata>
  <g>
    <g transform="translate(0.000000,511.000000) scale(0.100000,-0.100000)">
      <path d="M6293.2,4974.9c-119.5-58.8-153.9-184.3-81-301.8c48.6-81,125.6-101.3,388.9-105.3c480.1-6.1,988.6-168.1,1414-453.8c214.7-143.8,555.1-490.2,702.9-719.1c263.4-399.1,407.2-852.8,425.4-1320.8c12.2-326.1,28.4-395,115.5-447.7c74.9-46.6,135.7-48.6,210.7-10.1c95.2,48.6,115.5,115.5,111.4,360.6c-12.1,623.9-226.9,1239.8-619.9,1770.5c-251.2,340.3-717.1,731.3-1093.9,923.8c-328.2,164.1-733.3,281.6-1106.1,320.1C6469.5,5019.4,6374.2,5017.4,6293.2,4974.9z"/>
      <path d="M4705,4014.7c-30.4-26.3-634.1-1160.8-1420.1-2669.9L1915.6-1278.6L1640-1556.2c-251.2-251.2-324.1-309.9-729.3-583.4c-249.2-168.2-459.8-324.1-472-344.4c-10.1-20.3-20.3-77-20.3-125.6v-85.1l694.8-694.9l694.8-694.8h91.2c48.6,0,109.4,12.1,129.6,28.4c22.3,16.2,154,192.4,291.7,395c137.8,202.6,253.2,366.7,259.3,366.7c6.1,0,472-318.1,1037.2-707c563.2-386.9,1055.4-721.2,1093.9-741.4c93.2-46.6,279.6-62.8,376.8-30.4c105.3,34.4,378.8,299.8,445.7,431.5c36.4,75,50.6,135.7,50.6,220.8c0,224.8,28.4,198.5-1061.5,966.3c-540.9,380.8-988.6,698.9-992.6,707c-6.1,10.1,1100,593.6,2455.2,1300.6c1355.2,707,2489.6,1310.7,2522.1,1341c42.6,42.5,54.7,72.9,54.7,141.8V423L6742.9,2240.1L4925.8,4059.2h-85.1C4782,4059.2,4739.4,4045,4705,4014.7z M6445.1,1932.2C7377,1000.3,7976.6,386.5,7964.5,376.4c-26.3-24.3-4809.1-2516-4827.4-2516c-18.2,0-773.8,755.6-773.8,773.8c0,26.3,2516,4837.5,2530.2,4837.5C4899.5,3471.8,5598.4,2779,6445.1,1932.2z M2652.9-2548.8l-133.7-135.7l-352.5,336.3c-192.4,184.3-350.4,340.3-350.4,348.4c0,6.1,60.8,72.9,135.7,147.9l137.7,137.8l348.4-348.4l350.4-350.4L2652.9-2548.8z M1858.8-2648l382.9-366.7L2063.4-3276c-97.2-143.9-180.3-261.3-186.4-261.3c-6.1,0-214.7,204.6-465.9,455.8c-358.6,360.6-449.7,461.8-425.4,476.1c16.2,10.1,131.7,87.1,253.2,170.2c123.6,83.1,226.9,151.9,230.9,151.9C1473.9-2281.4,1648.2-2445.5,1858.8-2648z M4202.6-3454.3c524.7-370.7,956.2-680.7,956.2-688.8c0-32.4-220.8-228.9-247.2-220.8c-28.4,12.1-1999.4,1365.4-2031.8,1395.8c-12.2,12.1,30.4,66.9,111.4,149.9l129.6,129.6l60.8-46.6C3216.1-2759.4,3675.9-3083.6,4202.6-3454.3z"/>
      <path d="M6623.4,3666.2c-66.9-30.4-127.6-121.5-127.6-194.5c0-64.8,50.6-149.9,105.3-176.2c24.3-12.1,129.6-28.4,230.9-34.4c342.4-20.3,613.8-149.9,790.1-374.8c135.7-174.2,192.4-334.2,208.7-599.6c16.2-259.3,44.6-322.1,164.1-356.5c60.8-18.2,87.1-16.2,145.9,10.1c103.3,48.6,127.6,111.4,125.6,305.9c-10.1,534.8-346.4,1045.3-848.8,1286.4c-233,111.4-338.3,139.8-565.2,154C6734.8,3692.6,6670,3688.5,6623.4,3666.2z"/>
    </g>
  </g>
</svg>
