<svg version="1.1" xmlns="http://www.w3.org/2000/svg" xmlns:xlink="http://www.w3.org/1999/xlink" preserveAspectRatio="xMidYMid meet" viewBox="0 0 400 150">
  <defs>
    <style>
      .attst-1, .attst-5 {
        fill: #ffe082;
      }

      .attst-1, .attst-2, .attst-3 {
        stroke: #ff6f00;
        stroke-miterlimit: 10;
      }

      .attst-2, .attst-6 {
        fill: #ffca28;
      }

      .attst-3, .attst-7 {
        fill: #ffb300;
      }

      .attst-4 {
        opacity: 0.5;
      }
    </style>
    <g id="db-dots">
      <circle fill="#0CC1C8" cx="30.258" cy="0" r="2.836"/>
      <circle fill="#0CC1C8" cx="18.337" cy="0" r="2.003"/>
      <circle fill="#0CC1C8" cx="8.718" cy="0" r="1.605"/>
      <circle fill="#0CC1C8" cx="0" cy="0" r="1.189"/>
    </g>
  </defs>
  <title>Attestation and sealing diagram</title>
  <desc>A visualization of a padlocked datastore with a connection to an attestable enclave that has the unlock capability. The enclave is represented with the Asylo logo with an unlocked padlock overlayed. The enclave's attestability is represented with a magnifying glass hovering over the enclave visualization.</desc>
  <g id="protection" transform="scale(0.2) translate(1000,0)">
  <g id="locked-datastore" transform="scale(0.75) translate(-100, 50)">
    <g transform="scale(3) translate(-305,10)">
      <path stroke="none" fill="#BDBDBD" d="M96,8C71.7,8,52,27.7,52,52v24.02h20V52c0-13.25,10.75-24,24-24s24,10.75,24,24v24h20V52
      C140,27.7,120.3,8,96,8z"/>
      <path stroke="none" fill="#FFC107" d="M152,184H40c-6.63,0-12-5.37-12-12V80c0-6.63,5.37-12,12-12h112c6.63,0,12,5.37,12,12v92
			      C164,178.63,158.63,184,152,184z"/>
      <path stroke="none" fill="#FFA726" d="M152,184h-4V68h4c6.63,0,12,5.37,12,12v92C164,178.63,158.63,184,152,184z"/>
      <path stroke="none" fill="#FDD835" d="M40,68h4v116h-4c-6.63,0-12-5.37-12-12V80C28,73.37,33.37,68,40,68z"/>
    </g>
  <g id="datastore" transform="scale(0.4) translate(-1800, 700)">
    <path fill="#2e838c" d="M477.82 142.66L476.85 145.69L475.5 148.69L473.79 151.64L471.71 154.56L469.28 157.43L466.51 160.26L463.4 163.03L459.96 165.76L456.19 168.43L452.12 171.05L447.73 173.61L443.05 176.1L438.07 178.54L432.82 180.91L427.28 183.21L421.48 185.44L415.42 187.59L409.1 189.67L402.54 191.68L395.74 193.6L388.71 195.44L381.46 197.2L373.99 198.86L366.32 200.44L358.44 201.93L350.38 203.32L342.13 204.61L333.7 205.8L325.11 206.89L316.35 207.88L307.44 208.76L298.38 209.53L289.19 210.19L279.86 210.73L270.41 211.16L260.85 211.47L251.18 211.66L241.41 211.72L231.64 211.66L221.97 211.47L212.4 211.16L202.96 210.73L193.63 210.19L184.44 209.53L175.38 208.76L166.47 207.88L157.71 206.89L149.12 205.8L140.69 204.61L132.44 203.32L124.38 201.93L116.5 200.44L108.83 198.86L101.36 197.2L94.11 195.44L87.08 193.6L80.28 191.68L73.72 189.67L67.4 187.59L61.34 185.44L55.53 183.21L50 180.91L44.74 178.54L39.77 176.1L35.09 173.61L30.7 171.05L26.62 168.43L22.86 165.76L19.42 163.03L16.31 160.26L13.54 157.43L11.11 154.56L9.03 151.64L7.32 148.69L5.97 145.69L5 142.66L4.41 139.59L4.21 136.49L4.21 75.23L4.41 72.13L5 69.06L5.97 66.03L7.32 63.03L9.03 60.08L11.11 57.16L13.54 54.29L16.31 51.46L19.42 48.69L22.86 45.96L26.62 43.29L30.7 40.67L35.09 38.11L39.77 35.61L44.74 33.18L50 30.81L55.53 28.51L61.34 26.28L67.4 24.13L73.72 22.04L80.28 20.04L87.08 18.12L94.11 16.28L101.36 14.52L108.83 12.86L116.5 11.28L124.38 9.79L132.44 8.4L140.69 7.11L149.12 5.92L157.71 4.82L166.47 3.84L175.38 2.96L184.44 2.19L193.63 1.53L202.96 0.99L212.4 0.56L221.97 0.25L231.64 0.06L241.41 0L251.18 0.06L260.85 0.25L270.41 0.56L279.86 0.99L289.19 1.53L298.38 2.19L307.44 2.96L316.35 3.84L325.11 4.82L333.7 5.92L342.13 7.11L350.38 8.4L358.44 9.79L366.32 11.28L373.99 12.86L381.46 14.52L388.71 16.28L395.74 18.12L402.54 20.04L409.1 22.04L415.42 24.13L421.48 26.28L427.28 28.51L432.82 30.81L438.07 33.18L443.05 35.61L447.73 38.11L452.12 40.67L456.19 43.29L459.96 45.96L463.4 48.69L466.51 51.46L469.28 54.29L471.71 57.16L473.79 60.08L475.5 63.03L476.85 66.03L477.82 69.06L478.41 72.13L478.61 75.23L478.61 136.49L478.41 139.59L477.82 142.66Z" id="top-platter" />
    <path fill="#2e838c" d="M474.2 214.89L474.4 217.99L474.4 279.25L474.2 282.35L473.61 285.42L472.64 288.45L471.29 291.45L469.58 294.4L467.5 297.32L465.07 300.19L462.3 303.02L459.19 305.79L455.75 308.52L451.98 311.19L447.91 313.81L443.52 316.37L438.84 318.87L433.87 321.3L428.61 323.67L423.07 325.97L417.27 328.2L411.21 330.35L404.89 332.43L398.33 334.44L391.53 336.36L384.5 338.2L377.25 339.96L369.78 341.62L362.11 343.2L354.23 344.69L346.17 346.08L337.92 347.37L329.49 348.56L320.9 349.66L312.14 350.64L303.23 351.52L294.17 352.29L284.98 352.95L275.65 353.49L266.2 353.92L256.64 354.23L246.97 354.42L237.2 354.48L227.43 354.42L217.76 354.23L208.19 353.92L198.75 353.49L189.42 352.95L180.23 352.29L171.17 351.52L162.26 350.64L153.5 349.66L144.91 348.56L136.48 347.37L128.23 346.08L120.17 344.69L112.29 343.2L104.62 341.62L97.15 339.96L89.9 338.2L82.87 336.36L76.07 334.44L69.51 332.43L63.19 330.35L57.13 328.2L51.32 325.97L45.79 323.67L40.53 321.3L35.56 318.87L30.88 316.37L26.49 313.81L22.42 311.19L18.65 308.52L15.21 305.79L12.1 303.02L9.33 300.19L6.9 297.32L4.82 294.4L3.11 291.45L1.76 288.45L0.79 285.42L0.2 282.35L0 279.25L0 217.99L0.2 214.89L0.79 211.82L0.82 211.72L1.76 214.65L3.11 217.65L4.82 220.61L6.9 223.52L9.33 226.39L12.1 229.22L15.21 232L18.65 234.72L22.42 237.4L26.49 240.01L30.88 242.57L35.56 245.07L40.53 247.5L45.79 249.87L51.32 252.17L57.13 254.4L63.19 256.56L69.51 258.64L76.07 260.64L82.87 262.56L89.9 264.4L97.15 266.16L104.62 267.83L112.29 269.4L120.17 270.89L128.23 272.28L136.48 273.57L144.91 274.77L153.5 275.86L162.26 276.84L171.17 277.72L180.23 278.49L189.42 279.15L198.75 279.7L208.19 280.12L217.76 280.43L227.43 280.62L237.2 280.68L246.97 280.62L256.64 280.43L266.2 280.12L275.65 279.7L284.98 279.15L294.17 278.49L303.23 277.72L312.14 276.84L320.9 275.86L329.49 274.77L337.92 273.57L346.17 272.28L354.23 270.89L362.11 269.4L369.78 267.83L377.25 266.16L384.5 264.4L391.53 262.56L398.33 260.64L404.89 258.64L411.21 256.56L417.27 254.4L423.07 252.17L428.61 249.87L433.87 247.5L438.84 245.07L443.52 242.57L447.91 240.01L451.98 237.4L455.75 234.72L459.19 232L462.3 229.22L465.07 226.39L467.5 223.52L469.58 220.61L471.29 217.65L472.64 214.65L473.58 211.72L473.61 211.82L474.2 214.89Z" id="lower-platter" />
    <use href="#lower-platter" x="0" y="142.76" />
    <use href="#lower-platter" x="0" y="285.52" />
  </g>
</g>
<g transform="scale(3) translate(0, -140)">
<g transform="scale(0.18) translate(380, 1120)">
    <g>
      <polygon class="attst-1" points="202.107 34.408 29.749 134.085 87.364 167.404 202.107 233.761 316.849 167.404 374.464 134.085 202.107 34.408"/>
      <polygon class="attst-2" points="87.364 167.404 29.749 134.085 29.749 333.438 202.107 433.114 202.107 233.761 87.364 167.404"/>
      <polygon class="attst-3" points="316.849 167.404 202.107 233.761 202.107 433.114 374.464 333.438 374.464 134.085 316.849 167.404"/>
    </g>
    <g class="attst-4">
      <polygon class="attst-5" points="202.107 0 0 116.881 67.559 155.951 202.107 233.762 336.654 155.951 404.213 116.881 202.107 0"/>
      <polygon class="attst-6" points="67.559 155.951 0 116.881 0 350.643 202.107 467.523 202.107 233.762 67.559 155.951"/>
      <polygon class="attst-7" points="336.654 155.951 202.107 233.762 202.107 467.523 404.213 350.643 404.213 116.881 336.654 155.951"/>
    </g>
</g>
<polygon opacity="0.25" fill="#FFFFFF" enable-background="new    " points="97.854,191.337 31.812,269.803 31.812,191.337"/>
  <g id="open-lock" transform="scale(2.5) translate(30, 85)">
    <path opacity="0.5" d="M12 17c1.1 0 2-.9 2-2s-.9-2-2-2-2 .9-2 2 .9 2 2 2zm6-9h-1V6c0-2.76-2.24-5-5-5S7 3.24 7 6h1.9c0-1.71 1.39-3.1 3.1-3.1 1.71 0 3.1 1.39 3.1 3.1v2H6c-1.1 0-2 .9-2 2v10c0 1.1.9 2 2 2h12c1.1 0 2-.9 2-2V10c0-1.1-.9-2-2-2zm0 12H6V10h12v10z"/>
  </g>
  <g id="magnifying-glass" transform="scale(10) translate(1, 15)">
    <path fill="#404040" d="M15.5 14h-.79l-.28-.27C15.41 12.59 16 11.11 16 9.5 16 5.91 13.09 3 9.5 3S3 5.91 3 9.5 5.91 16 9.5 16c1.61 0 3.09-.59 4.23-1.57l.27.28v.79l5 4.99L20.49 19l-4.99-5zm-6 0C7.01 14 5 11.99 5 9.5S7.01 5 9.5 5 14 7.01 14 9.5 11.99 14 9.5 14z"/>
  </g>
  </g>
<use href="#db-dots" x="-45" y="65" transform="scale(5)" />
</g>
</svg>
